<?xml version="1.0" encoding="iso-8859-1"?>
<!-- Generator: Adobe Illustrator 22.1.0, SVG Export Plug-In . SVG Version: 6.00 Build 0)  -->
<svg version="1.1" id="_x33_" xmlns="http://www.w3.org/2000/svg" xmlns:xlink="http://www.w3.org/1999/xlink" x="0px" y="0px"
	 viewBox="0 0 512 512" style="enable-background:new 0 0 512 512;" xml:space="preserve">
<g>
	<path style="fill:#65D69D;" d="M179.928,77.328c-11.897-5.552-46.003-23.795-56.314-29.347
		c-10.311-5.552,9.518-16.656,15.863-17.449c6.345-0.793,33.312-2.379,33.312-2.379s6.345-19.829,18.242-23.794
		c11.897-3.966,19.829,11.897,19.829,19.036c0,7.138,7.138,7.138,7.138,7.138l38.864,22.208c0,0,8.725-19.829,19.829-21.415
		s19.036,26.967,18.242,31.726c-0.793,4.759,4.759,11.104,4.759,11.104s29.346,17.449,50.762,48.382
		c15.863-7.138,29.346,0,36.485,7.931c7.138,7.932,8.725,14.277,8.725,17.449c0,3.173-3.173,24.588,0.793,30.933
		c3.966,6.345,15.863,18.242,23.001,33.312c7.138,15.07,11.104,31.726,10.311,41.244c-0.793,9.518-21.415,11.104-21.415,11.104
		s12.69,28.553-0.793,43.623c15.863,11.897,28.553,52.348,31.726,69.797c3.173,17.449-8.725,43.623-10.311,51.555
		c-1.586,7.931-9.518,15.863-10.311,21.415c-0.793,5.552,4.759,10.311,16.656,11.104c11.897,0.793,23.001,12.69,29.346,22.208
		c6.345,9.518-7.138-3.173-21.415-6.345c19.036,12.69,23.001,30.14,19.829,28.553s-19.036-16.656-29.346-17.449
		c10.311,6.345,15.863,23.001,10.311,22.208c-5.552-0.793-24.588-15.07-34.899-19.829c-10.311-4.759-30.933-9.518-31.726-21.415
		c-0.793-11.897,10.311-45.21,10.311-59.486s-23.001-36.485-39.658-44.416c-16.656-7.932-52.348-16.656-72.97-22.208
		c-20.622-5.552-35.692,0.793-35.692,0.793s-31.726,8.725-42.83,23.001c-11.104,14.277-11.897,19.829-3.966,26.967
		c7.932,7.138,25.381,34.105,26.174,42.037c0.793,7.931-4.759,26.174-7.932,32.519c-3.173,6.345-20.622,15.07-32.519,19.036
		c-11.897,3.966-26.967,13.484-26.174,10.311c0.793-3.173,11.104-16.656,16.656-20.622c5.552-3.966-27.76,7.931-38.071,10.311
		c-10.311,2.38,5.552-15.07,19.829-18.242s-3.173-3.966-19.036-1.586c-15.863,2.379-11.897-7.138-2.379-8.725
		c9.518-1.586,26.967-0.793,31.726-2.379s11.897-1.586,15.07-11.897c3.173-10.311,0-12.69-9.518-17.449
		c-9.518-4.759-26.174-15.07-43.623-34.899s-11.104-49.175-1.586-59.486c9.518-10.311,26.174-30.14,42.037-34.899
		c15.863-4.759,7.932-93.592,0-92.005s-22.208,5.552-34.899,10.311s-32.519,20.622-47.589-3.173
		c-15.07-23.794-9.518-63.452-11.104-70.59c-1.586-7.138-5.552-9.518-16.656-18.242c-11.104-8.725-3.966-22.208,5.552-29.347
		c9.518-7.138,15.07-4.759,18.242-1.586c10.311-5.552,17.449,8.725,17.449,8.725c7.931-6.345,11.104,7.138,12.69,11.897
		c1.586,4.759-1.586,10.311-1.586,10.311s4.759,8.725-1.586,15.863c-6.345,7.138,2.379,17.449,2.379,19.829
		s9.518,22.208,9.518,22.208s16.656-15.07,26.967-19.036c10.311-3.966,32.519-12.69,38.071-14.277
		c5.552-1.586,28.553-22.208,28.553-22.208L179.928,77.328z"/>
	<path style="fill:#ED7342;" d="M229.896,105.882c13.525,14.565,34.899,31.726,36.485,35.692
		c1.586,3.966-13.484,8.725-26.967,14.277c-13.484,5.552-37.278,11.104-53.934,9.518c-16.656-1.586-16.656-3.966-11.897-16.656
		c4.759-12.69,11.104-34.105,11.104-46.796s-4.759-24.588-4.759-24.588S219.585,94.777,229.896,105.882z"/>
	<path style="fill:#FFFFFF;" d="M265.588,156.643c-3.966,7.931,15.863,39.657,29.346,63.452
		c13.484,23.795,3.173,75.349-22.208,96.764c-25.381,21.415-55.52,26.967-83.281,9.518c-27.76-17.449-35.692-47.589-34.899-74.556
		c0.793-26.967,12.69-53.141,12.69-63.452c0-10.311,1.586-26.967,1.586-26.967s2.38,8.725,12.69,7.932
		c10.311-0.793,45.21-7.932,52.348-11.897c7.138-3.966,25.381-9.518,30.933-8.725C270.347,149.505,265.588,156.643,265.588,156.643z
		"/>
	<g>
		<path d="M185.913,12.409c-3.356,4.245-5.124,7.608-6.191,9.848c-1.081,2.253-1.309,3.559-1.902,4.476
			c-0.568,0.879-1.429,0.978-2.469-0.418c-0.922-1.326-1.328-4.186-0.183-6.764c2.182-5.159,5.223-9.292,8.672-12.972
			c1.761-1.798,3.684-3.423,5.891-4.724c0.586-0.299,1.167-0.594,1.74-0.884c0.635-0.242,1.3-0.446,1.947-0.646
			c1.385-0.323,2.938-0.433,4.297-0.202c2.827,0.492,5.275,2.126,6.876,3.928c1.658,1.809,2.803,3.766,3.712,5.713
			c1.798,3.911,2.789,7.859,3.481,11.789c0.701,3.946,1.04,9.826,1.148,13.515c0.041,1.853,0.093,3.188-0.169,3.533
			c-0.241,0.347-0.921-0.387-1.757-2.752c-1.593-4.707-2.739-7.925-4.045-11.306c-1.329-3.328-2.521-7.03-4.748-11.785
			c-1.128-2.313-2.674-4.583-4.302-5.489c-1.583-0.956-3.307-0.699-5.416,0.268c-2.005,0.965-3.67,2.313-4.82,3.245
			C186.569,11.793,185.913,12.409,185.913,12.409z"/>
		<path d="M225.051,37.197c-6.075-1.825-8.359-3.81-8.663-5.625c-0.305-1.745,1.793-3.047,4.453-1.833
			c5.191,2.389,10.77,3.612,14.75,5.61c3.959,1.996,7.785,4.049,11.353,6.514c1.778,1.262,4.357,3.319,5.951,4.849
			c1.589,1.517,2.123,2.638-0.612,1.974c-5.415-1.405-8.058-1.233-13.968-4.218c-2.938-1.51-6.222-3.414-8.802-4.847
			C226.93,38.217,225.051,37.197,225.051,37.197z"/>
		<path d="M267.048,39.938c-3.729,3.942-5.643,7.661-7.18,10.083c-1.506,2.473-2.461,3.926-3.396,4.432
			c-0.918,0.508-1.679,0.002-2.017-1.466c-0.298-1.433-0.07-3.794,1.231-6.261c2.59-4.882,5.679-9.497,10.167-12.902
			c2.236-1.671,4.924-2.946,7.795-3.337c2.874-0.422,5.694,0.103,8.082,1.231c4.822,2.335,7.695,6.553,9.58,10.55
			c1.9,4.078,2.937,8.296,3.513,12.502c0.615,4.219,0.539,10.541-0.096,14.434c-0.642,3.909-1.454,5.392-2.041,0.391
			c-0.691-5.006-1.695-8.428-2.804-11.985c-1.166-3.52-2.31-7.342-4.661-12.346c-1.21-2.453-2.798-4.9-4.755-6.428
			c-1.892-1.574-4.246-2.183-6.342-2.053c-2.084,0.139-3.927,1.007-5.146,1.796C267.744,39.353,267.048,39.938,267.048,39.938z"/>
		<path d="M197.985,84.499c-16.426-10.097-35.828-18.38-52.189-26.335c-4.081-1.994-8.053-3.897-11.497-5.876
			c-3.417-1.954-6.557-4.146-8.162-6.263c-0.397-0.51-0.618-0.996-0.754-1.345c-0.08-0.248-0.052-0.501-0.008-0.723
			c0.036-0.233,0.19-0.396,0.327-0.594l0.378-0.413l0.512-0.446c1.628-1.22,3.665-2.055,5.479-2.655
			c7.171-2.596,16.207-4.443,23.581-5.634c7.344-1.24,12.998-2.431,12.332-5.549c-0.531-2.469-7.116-4.163-15.286-3.801
			c-4.066,0.174-8.473,0.936-12.475,2.126c-4.008,1.178-7.585,2.796-10.166,4.335c-1.265,0.818-3.41,1.774-6.297,3.904
			c-1.394,1.09-3.059,2.352-4.412,4.937c-0.651,1.312-1.047,2.895-0.856,4.48c0.102,0.789,0.288,1.578,0.603,2.335
			c0.305,0.723,0.656,1.361,1.06,1.924c1.612,2.286,3.615,3.779,5.685,5.177c2.085,1.372,4.301,2.565,6.599,3.691
			c4.611,2.231,9.46,4.267,14.44,6.441c9.948,4.289,20.308,8.736,29.501,13.183c4.597,2.22,8.904,4.43,12.724,6.575
			c3.82,2.137,7.099,4.271,9.951,6.048c5.653,3.557,11.808,6.859,17.777,10.341c5.978,3.471,11.667,7.347,16.767,11.664
			c5.13,4.32,9.956,8.729,14.158,12.987c4.16,4.271,7.959,8.397,10.478,12.146c2.571,3.843,5.09,7.314,7.493,9.567
			c2.378,2.282,4.493,3.271,5.519,3.029c1.045-0.257,1.045-1.57-0.174-4.249c-0.611-1.358-1.514-3.097-2.832-5.351
			c-1.338-2.24-3.047-5.034-5.676-8.211c-0.664-0.789-1.339-1.554-2.03-2.293c-0.662-0.684-1.311-1.354-1.951-2.016
			c-1.283-1.308-2.549-2.539-3.785-3.724c-2.479-2.365-4.86-4.52-7.183-6.544c-4.672-4.045-8.946-7.637-13.667-11.238
			c-4.691-3.579-9.856-6.876-15.805-10.213C212.194,92.574,205.53,89.173,197.985,84.499z"/>
		<path d="M316.938,87.216c-3.735-3.106-6.417-4.959-8.328-6.344c-1.894-1.398-3.046-2.374-3.404-3.304
			c-0.357-0.921,0.116-1.671,1.376-1.981c1.249-0.343,3.254-0.037,5.306,1.167c4.066,2.434,7.507,5.322,10.643,8.145
			c3.105,2.845,5.839,5.656,8.01,8.215c4.312,5.08,8.969,9.954,13.139,15.397c2.088,2.713,4.946,7.074,6.396,10.05
			c1.45,2.983,1.6,4.482-1.411,1.519c-6.11-5.885-9.5-7.274-16.485-14.797c-3.507-3.722-7.369-8.549-10.173-12.143
			C319.161,89.542,316.938,87.216,316.938,87.216z"/>
		<path d="M187.168,87.605c-0.587-3.251-2.689-4.911-4.241-4.623c-1.608,0.286-2.619,2.407-2.046,6.626
			c0.485,4.298,1.226,7.395,1.695,11.112c0.457,3.706,0.507,7.894-0.66,13.667c-1.068,5.788-2.169,11.347-3.538,16.333
			c-1.362,4.988-3.02,9.354-4.68,12.891c-0.816,1.721-0.997,3.161-0.736,4.199c0.279,1.04,1.031,1.68,2.074,1.567
			c1.033-0.112,2.425-0.978,3.707-2.97c1.264-1.981,2.414-5.091,2.768-9.312c0.602-8.936,1.654-9.989,3.448-22.139
			c0.787-4.794,1.934-9.437,2.478-14.012C188.027,96.363,187.926,91.791,187.168,87.605z"/>
		<path d="M226.872,157.201c6.681-2.581,11.403-4.667,14.861-5.863c3.435-1.236,5.565-1.644,6.654-1.321
			c2.165,0.55-0.063,4.109-5.866,6.656c-11.464,5.045-23.267,9.518-33.133,11.257c-4.899,0.879-9.873,1.532-14.74,1.992
			c-4.777,0.462-9.811,1.13-15.135,0.569c-1.333-0.158-2.858-0.426-4.464-0.983c-1.588-0.547-3.32-1.433-4.639-2.888
			c-1.347-1.422-2.037-3.311-2.136-4.924c-0.141-1.633,0.152-3.045,0.486-4.203c0.7-2.315,1.633-3.693,2.025-3.854
			c0.474-0.152,0.3,0.952,0.059,3.79c-0.229,2.853,0.566,5.034,1.898,6.041c1.321,1.059,3.167,1.361,5.146,1.442
			c4.068,0.103,8.612-0.798,15.967-1.732c7.27-0.776,15.559-1.88,22.01-3.236C222.307,158.61,226.872,157.201,226.872,157.201z"/>
		<path d="M154.727,223.712c0.29-1.572,0.492-2.948,0.723-4.511c0.247-1.605,0.59-3.133,0.993-4.566
			c0.811-2.873,1.812-5.368,2.738-7.591c0.969-2.293,1.748-4.036,2.269-5.795c0.54-1.745,0.886-3.392,1.157-4.913
			c0.518-3.049,0.794-5.57,1.155-7.45c0.347-1.888,0.737-3.144,1.145-3.816c0.814-1.345,1.645-0.404,2.259,2.198
			c0.55,2.59,1.222,6.999,0.106,12.763c-0.284,1.427-0.675,2.842-1.137,4.23c-0.454,1.405-1.045,2.741-1.537,3.941
			c-1.025,2.473-1.992,4.887-2.704,7.296c-0.358,1.205-0.654,2.409-0.88,3.614c-0.207,1.293-0.413,2.579-0.618,3.858
			c-0.457,2.671-1.028,5.254-1.6,7.764c-1.151,5.019-2.279,9.765-2.764,14.241c-0.25,2.251-0.343,4.368-0.276,6.502
			c0.055,2.189,0.201,4.315,0.353,6.379c1.472,16.535,7.411,32.563,15.968,46.968c2.096,3.504,5.133,7.742,8.696,11.475
			c3.517,3.777,7.542,6.999,10.925,9.107c3.357,2.17,6.064,3.161,6.43,3.676c0.187,0.242-0.195,0.308-1.312,0.141
			c-1.126-0.136-2.95-0.646-5.525-1.713c-5.094-2.264-9.013-4.968-12.443-7.685c-3.391-2.77-6.333-5.577-9.031-8.824
			c-2.729-3.293-5.073-6.817-7.571-11.064c-2.453-4.251-4.921-9.239-7.202-15.496c-2.223-6.276-4.08-13.295-5.003-20.341
			c-0.503-3.513-0.754-7.03-0.833-10.426c-0.133-3.337,0.098-6.887,0.609-9.916c1.018-6.157,2.585-11.073,3.496-14.557
			C154.268,225.734,154.727,223.712,154.727,223.712z"/>
		<path d="M50.299,120.263c0.925,1.976,2.329,3.407,3.585,4.731c1.284,1.301,2.47,2.434,3.375,3.445
			c1.85,2.018,2.618,3.53,2.597,4.418c-0.06,1.757-2.966,1.253-6.329-1.805c-1.674-1.559-3.47-3.122-5.053-5.063
			c-1.595-1.906-2.876-4.278-3.436-6.709c-0.581-2.436-0.687-4.759-0.497-7.013c0.198-2.26,0.803-4.445,1.704-6.32
			c0.907-1.873,2.07-3.583,3.372-5.093c0.635-0.747,1.364-1.493,2.003-2.119l1.912-1.873c2.592-2.486,5.348-5.129,8.954-6.984
			c1.761-0.919,4.371-1.789,6.989-1.563c2.613,0.198,4.856,1.372,6.16,2.565c1.369,1.134,2.014,2.212,2.006,2.526
			c-0.047,0.382-0.798,0.062-2.649-0.873c-1.873-0.923-3.596-1.092-5.043-0.884c-1.457,0.213-2.696,0.732-3.894,1.55
			c-2.418,1.574-4.675,3.963-8.399,7.744c-0.927,0.93-1.893,1.901-2.873,2.886c-0.88,0.923-1.686,1.901-2.369,2.922
			c-1.386,2.029-2.194,4.256-2.53,6.366c-0.338,2.128-0.298,4.032-0.071,5.236C50.02,119.588,50.299,120.263,50.299,120.263z"/>
		<path d="M74.042,104.633c-0.751,2.473-1.401,4.35-2.199,5.588c-0.775,1.251-1.628,1.866-2.377,1.978
			c-1.49,0.226-2.593-1.49-1.672-3.768c0.929-2.269,1.547-4.676,2.485-7.01c0.906-2.315,2.218-4.612,4.062-6.107
			c1.807-1.51,3.994-2.55,6.231-3.031c1.143-0.248,2.407-0.339,3.683-0.182c1.284,0.16,2.529,0.653,3.525,1.284
			c2.094,1.31,3.66,3.684,4.766,5.162c1.101,1.479,1.539,2.541-0.814,1.567c-2.269-1.053-3.856-1.849-5.322-2.233
			c-1.527-0.382-2.396-0.426-4.458,0.04c-1.06,0.295-2.2,0.684-3.176,1.284c-0.977,0.604-1.845,1.387-2.558,2.189
			C74.824,103.044,74.042,104.633,74.042,104.633z"/>
		<path d="M88.271,110.039c-1.204,2.495-2.047,4.41-2.933,5.7c-0.861,1.295-1.725,1.963-2.487,2.102
			c-1.501,0.306-2.599-1.627-1.424-4.188c1.168-2.517,2.236-5.109,3.736-7.507c1.465-2.39,3.604-4.504,5.974-5.57
			c1.17-0.541,2.415-0.915,3.66-1.13c1.265-0.207,2.426-0.312,3.839-0.189c1.357,0.13,2.93,0.536,4.217,1.526
			c1.291,0.947,2.116,2.222,2.613,3.344c0.992,2.343,1.196,5.056,2.198,6.725c0.424,0.888,0.955,1.455,0.905,1.833
			c-0.001,0.306-0.613,0.422-1.919-0.387c-2.537-1.774-3.582-3.744-4.78-5.118c-0.572-0.69-1.142-1.271-1.661-1.587
			c-0.528-0.303-0.949-0.455-1.986-0.545c-2.334-0.152-5.252,0.604-7.025,2.031c-0.93,0.679-1.664,1.436-2.158,2.009
			C88.549,109.67,88.271,110.039,88.271,110.039z"/>
		<path d="M101.314,126.5c-1.405-1.77-2.533-3.592-2.816-5.148c-0.318-1.561,0.13-2.675,0.783-3.214
			c0.653-0.554,1.523-0.642,2.24-0.457c0.723,0.196,1.323,0.651,1.697,1.583c0.744,1.888,2.344,3.627,3.628,5.812
			c1.334,2.17,2.066,4.841,1.954,7.006c-0.191,4.478-1.987,8.138-3.839,11c-0.975,1.464-2.518,3.414-3.538,4.898
			c-0.978,1.455-1.876,2.363-2.065-0.125c0.028-4.821,0.135-7.281,1.707-11.82c0.802-2.236,1.255-4.564,1.076-6.38
			C101.99,127.907,101.314,126.5,101.314,126.5z"/>
		<path d="M68.173,174.418c-0.494-5.731-0.507-10.655-0.433-14.836c0.124-4.282,0.375-7.573,0.402-10.308
			c0.14-5.482-0.431-8.044-0.783-9.336c-0.146-0.673-0.064-1.134,0.491-1.169c0.27-0.015,0.682,0.068,1.165,0.31
			c0.396,0.259,1.007,0.664,1.426,1.222c1.991,2.282,2.996,6.505,2.948,11.354c-0.335,9.598-0.403,18.798,0.756,27.461
			c0.285,2.152,0.639,4.256,1.061,6.298c0.423,2.036,0.945,3.997,1.457,6.072c1.002,4.054,1.923,7.848,2.951,11.282
			c2.008,6.837,5.114,13.225,10.506,16.47c5.338,3.295,12.619,3.634,19.522,2.321c7.003-1.141,17.567-5.267,24.471-7.111
			c3.445-0.932,5.932-1.26,6.422-1.046c0.502,0.255-0.975,0.932-5.224,2.785c-8.479,3.814-14.198,7.261-21.119,9.752
			c-3.456,1.233-7.227,2.284-11.777,2.605c-1.139,0.031-2.319,0.086-3.55,0.02c-1.234-0.121-2.515-0.2-3.846-0.402
			c-2.646-0.565-5.58-1.328-8.388-3.102c-1.468-0.767-2.718-1.913-4.027-2.987c-1.169-1.211-2.37-2.438-3.305-3.836
			c-1.961-2.735-3.463-5.737-4.539-8.732c-2.235-5.992-3.294-11.917-4.338-16.951c-1.105-5.052-1.721-9.78-1.95-12.976
			C68.219,176.33,68.173,174.418,68.173,174.418z"/>
		<path d="M103.971,162.499c-1.699-2.13-2.843-4.295-3.028-6.102c-0.217-1.816,0.45-2.977,1.206-3.37
			c0.755-0.413,1.635-0.253,2.285,0.059c0.68,0.332,1.169,0.831,1.453,1.816c0.578,2.018,2.185,3.904,3.609,6.045
			c0.36,0.539,0.708,1.112,1.031,1.713c0.275,0.523,0.546,1.04,0.81,1.543c0.501,1.009,0.938,1.994,1.258,2.95
			c1.268,3.823,2.292,7.773,2.292,11.893c0.014,2.055-0.513,5.192-1.351,7.056c-0.849,1.877-1.719,2.473-2.057,0.167
			c-0.921-4.652-2.568-6.23-3.84-11.607c-0.677-2.693-1.505-5.852-2.247-8.305c-0.398-1.301-0.646-2.108-0.941-2.779
			C104.15,162.901,103.971,162.499,103.971,162.499z"/>
		<path d="M126.269,177.091c-3.662,2.845-6.184,4.928-8.156,6.261c-1.964,1.328-3.367,1.913-4.334,1.807
			c-1.919-0.112-1.866-3.328,1.473-6.208c3.296-2.794,6.596-5.452,9.919-7.769c3.321-2.326,6.643-4.243,9.666-5.579
			c5.771-2.543,11.694-4.641,17.472-6.342l0.13-0.015l0.349-0.154c2.837-1.422,7.115-3.568,9.84-4.935
			c0.688-0.356,1.277-0.66,1.724-0.89c0.217-0.141,0.423-0.224,0.558-0.453l0.027-0.462l-0.185-0.297
			c-0.099-0.132-0.075-0.246,0.262-0.152c0.154,0.044,0.405,0.174,0.55,0.613c0.069,0.235,0.049,0.273,0.053,0.451l-0.056,0.367
			c-0.223,0.791-0.648,1.356-1.373,2.187c-1.803,1.95-3.28,3.414-4.688,4.841c-0.707,0.708-1.396,1.389-2.13,2.069
			c-0.38,0.339-0.762,0.677-1.152,1.024c-0.457,0.354-0.72,0.666-1.688,1.17c-2.159,1.147-4.638,2.363-8.062,3.66
			c-4.511,1.726-9.723,3.68-13.652,5.458C128.912,175.482,126.269,177.091,126.269,177.091z"/>
		<path d="M330.151,140.186c-2.652,1.515-3.733,3.051-4.554,4.252c-0.817,1.213-1.343,2.165-1.994,2.546
			c-0.636,0.389-1.276,0.202-1.709-0.664c-0.481-0.831-0.513-2.442,0.34-4.133c1.84-3.337,4.89-5.405,7.898-6.599
			c3.042-1.169,6.238-1.521,9.067-0.89c2.715,0.598,5.301,1.88,7.393,3.588c2.109,1.697,3.751,3.713,5.118,5.744
			c1.371,2.055,3.001,5.159,4.205,7.083c1.216,1.891,1.677,3.084-0.948,1.284c-2.492-1.917-4.096-3.407-5.787-4.891
			c-1.693-1.462-3.302-3.161-5.753-5.065c-2.439-1.915-5.766-3.205-8.558-3.108c-1.4-0.022-2.596,0.246-3.429,0.437
			C330.614,139.993,330.151,140.186,330.151,140.186z"/>
		<path d="M343.754,129.579c-0.904,0.587-1.378,1.22-1.794,1.847c-0.415,0.624-0.711,1.282-0.987,1.868
			c-0.557,1.178-1.057,2.047-1.675,2.401c-0.609,0.365-1.261,0.231-1.752-0.433c-0.498-0.642-0.768-1.882-0.315-3.388
			c0.461-1.488,1.2-2.985,2.313-4.197c1.101-1.218,2.518-2.08,3.917-2.59c2.835-1,5.506-1,7.801-0.512
			c4.586,1.038,8.487,3.689,11.205,7.023c1.4,1.664,2.91,4.531,3.449,6.474c0.539,1.961,0.354,2.889-1.226,1.016
			c-1.634-1.844-3.054-2.869-4.525-3.902c-1.491-1.007-3.016-2.086-5.288-3.482c-2.273-1.416-5.122-2.44-7.466-2.565
			C345.064,128.962,343.754,129.579,343.754,129.579z"/>
		<path d="M367.773,123.38c-5.662-1.279-9.356-0.099-12.154,0.815c-2.781,0.965-4.571,1.669-5.633,1.477
			c-1.06-0.167-1.297-1.066-0.599-2.44c0.668-1.359,2.436-3.161,5.344-4.298c2.89-1.119,6.035-1.679,9.078-1.581
			c3.048,0.09,5.937,0.783,8.582,1.699c2.645,0.934,5.054,2.115,7.265,3.363c1.045,0.618,2.069,1.225,3.065,1.814
			c0.964,0.582,1.931,1.178,2.858,1.792c1.856,1.227,3.769,2.574,5.584,4.236c1.809,1.642,3.528,3.708,4.651,6.199
			c0.581,1.225,0.944,2.565,1.197,3.876c0.18,1.154,0.322,2.304,0.413,3.449c0.177,2.291,0.177,4.555,0.056,6.784
			c-0.215,4.487-1.405,10.932-2.362,14.935c-0.932,4.01-1.796,5.685-2.07,0.22c-0.193-5.443-0.506-9.233-0.955-13.192
			c-0.224-1.976-0.466-3.996-0.799-6.243c-0.384-2.185-0.679-4.979-1.617-6.929c-1.857-4.383-8.77-8.263-13.53-11.677
			c-2.33-1.574-4.428-2.675-5.939-3.37C368.69,123.659,367.773,123.38,367.773,123.38z"/>
		<path d="M341.938,165.919c-1.412-3.59-1.212-7.015-0.057-9.094c1.158-2.135,2.837-2.482,3.6-2.192
			c0.825,0.277,1.2,1.141,1.37,1.855c0.169,0.761,0.167,1.35-0.173,2.304c-0.711,2.001,0,4.746,1.066,6.977
			c1.075,2.295,2.455,4.324,3.525,6.21c2.166,3.779,4.77,7.327,7.31,10.888c1.27,1.789,3.129,4.539,4.668,6.074
			c0.741,0.798,1.463,1.304,1.584,1.695c0.158,0.336-0.573,0.73-2.239,0.273c-1.61-0.492-2.834-1.095-3.957-1.666
			c-1.133-0.569-2.125-1.152-3.128-1.798c-1.983-1.31-3.928-2.932-6.163-5.883c-2.217-2.961-4.321-6.742-5.598-9.927
			C342.433,168.465,341.938,165.919,341.938,165.919z"/>
		<path d="M321.697,156.088c-0.289-0.604-0.489-1.196-0.534-1.767c-0.067-0.565-0.159-1.106-0.105-1.576
			c0.142-0.934,0.308-1.719,0.632-2.267c0.687-1.086,1.441-1.499,2.09-1.504c1.3,0.044,2.261,1.383,1.714,2.658
			c-0.493,1.363-0.136,2.752,0.516,3.755c0.695,1.016,1.75,1.671,2.577,2.405c1.804,1.422,4.141,2.502,6.448,3.975
			c1.154,0.734,2.908,2.069,3.896,3.172c0.98,1.141,1.097,1.91-0.518,1.506c-3.356-0.789-5.086-0.042-9.161-2.029
			c-2.022-1.011-4.338-2.697-5.749-4.616c-0.749-0.906-1.152-1.915-1.47-2.572C321.774,156.533,321.697,156.088,321.697,156.088z"/>
		<path d="M410.753,202.072c-2.414-3.069-4.737-5.617-6.61-8.059c-1.875-2.412-3.311-4.592-4.305-6.52
			c-2.023-3.86-2.152-6.663-1.531-7.687c0.578-1.018,1.516-0.536,2.538,0.543c1.054,1.115,2.486,3.038,4.276,5.759
			c1.771,2.728,3.9,5.311,6.064,7.879c2.21,2.576,4.334,5.302,6.278,7.929c3.924,5.313,7.219,10.805,9.354,16.017
			c2.129,5.168,3.892,10.6,4.796,16.27c0.796,5.647,1.035,11.596-0.801,17.366c-0.799,2.86-2.67,6.39-5.452,8.916
			c-2.774,2.528-6.162,3.994-8.796,4.322c-1.276,0.339-2.436,0.196-3.247,0.207c-0.824-0.035-1.352-0.123-1.52-0.275
			c-0.348-0.339,0.792-0.756,3.796-1.767c3.018-1.075,5-2.915,6.517-4.671c1.432-1.879,2.281-3.884,2.859-6.043
			c0.494-2.196,0.854-4.507,0.809-7.265c-0.003-2.737-0.188-5.872-0.853-9.637c-1.253-7.512-4.512-16.226-7.777-22.576
			c-1.634-3.196-3.247-5.867-4.443-7.74C411.478,203.176,410.753,202.072,410.753,202.072z"/>
		<path d="M325.386,231.221c-4.048-2.48-7.438-4.592-10.369-6.874c-2.885-2.262-5.121-4.656-6.45-7.048
			c-1.349-2.389-1.743-4.641-1.643-6.225c0.083-0.802,0.226-1.449,0.404-1.941c0.223-0.497,0.447-0.849,0.665-1.081
			c0.891-0.912,1.602,0.017,2.214,1.521c0.668,1.541,1.574,3.601,3.736,6.285c2.151,2.704,5.263,4.92,8.448,7.008
			c3.238,2.124,6.451,4.122,9.644,6.003c6.372,3.772,12.542,7.087,17.935,10.169c5.392,3.091,10.839,6.017,16.363,8.793
			c2.759,1.391,5.535,2.741,8.328,4.054c2.752,1.264,5.7,2.715,8.293,3.676c5.365,2.09,14.98,3.489,20.538,6.028
			c2.786,1.209,4.425,2.574,4.563,3.021c0.108,0.521-1.129,0.02-4.759-0.926c-7.406-1.633-12.983-1.185-19.08-2.192
			c-1.532-0.262-3.106-0.552-4.749-1.064c-1.65-0.486-3.122-1.024-4.813-1.638c-3.317-1.231-6.996-2.77-11.286-4.854
			c-8.61-4.146-18.158-9.791-25.481-14.441C330.55,234.844,325.386,231.221,325.386,231.221z"/>
		<path d="M365.231,202.916c-1.384-2.766-1.711-5.465-1.149-7.355c0.538-1.93,1.847-2.68,2.668-2.6
			c0.852,0.046,1.504,0.695,1.929,1.224c0.444,0.578,0.644,1.057,0.529,1.97c-0.409,3.961,3.534,8.226,4.455,12.317
			c1.083,3.827,2.07,7.723,2.213,11.783c0.237,4.124-1.515,12.249-2.852,7.505c-1.429-4.678-3.142-6.263-4.487-11.844
			c-0.655-2.77-1.419-6.001-2.02-8.545C365.773,204.794,365.231,202.916,365.231,202.916z"/>
		<path d="M410.45,279.049c-2.364-3.887-3.872-7.177-4.278-9.815c-0.458-2.656,0.363-4.597,1.309-4.911
			c0.852-0.336,1.614,0.354,2.176,0.809c0.577,0.541,1.168,1.561,1.685,3.269c1.074,3.465,3.227,6.755,5.07,10.193
			c0.464,0.873,0.921,1.752,1.315,2.757c0.418,0.936,0.734,2.229,0.859,3.148c0.079,0.506,0.157,1.005,0.234,1.497
			c0.019,0.49,0.037,0.974,0.055,1.453c0.058,0.967-0.029,1.877-0.134,2.759c-0.938,7.041-3.947,13.016-7.473,18.276
			c-1.792,2.645-4.841,6.247-6.933,8.417c-2.07,2.178-3.393,2.924-1.921-0.78c1.53-3.645,2.449-6.259,3.444-9.004
			c0.979-2.743,2.158-5.573,3.813-9.631c1.694-4.045,2.981-8.83,2.624-12.357c-0.009-0.468-0.049-0.866-0.121-1.176
			c-0.026-0.319-0.19-0.739-0.265-1.079c-0.229-0.73-0.469-1.409-0.701-1.983C410.732,279.735,410.45,279.049,410.45,279.049z"/>
		<path d="M160.38,307.882c-0.03,0.288-0.044,0.572-0.044,0.851l-0.046-0.38c-0.053-0.264-0.092-0.558-0.257-0.772
			c-0.285-0.448-0.606-0.908-1.011-1.264c-0.805-0.728-1.727-1.273-2.674-1.658c-1.896-0.763-3.861-0.961-5.877-0.637
			c-2.019,0.328-4.109,1.187-6.39,2.634c-2.274,1.49-4.731,3.322-7.709,6.375c-5.159,5.436-10.269,11.139-14.583,17.144
			c-4.356,6.076-7.205,12.451-8.766,17.384c-1.577,4.929-2.881,13.064-2.014,21.482c0.414,4.194,1.294,8.45,2.767,12.262
			c0.298,0.965,0.769,1.871,1.153,2.77c0.391,0.897,0.788,1.763,1.275,2.568c0.462,0.807,0.907,1.585,1.335,2.332
			c0.451,0.673,0.882,1.315,1.29,1.926c1.634,2.429,4.274,5.856,7.697,9.283c3.396,3.456,7.509,6.942,11.64,10.035
			c8.296,6.182,16.332,11.249,19.184,13.341c1.44,1.016,3.72,2.625,6.45,4.551c2.665,1.917,5.628,4.19,8.08,6.742
			c2.467,2.502,4.222,5.46,4.42,7.628c0.209,2.069-0.833,3.992-2.103,5.366c-2.524,2.706-5.633,4.669-9.481,6.399
			c-3.548,1.596-8.287,2.17-15.935,1.774c-3.837-0.172-7.541-0.343-11.047-0.119c-3.499,0.22-6.76,0.791-9.502,1.752
			c-1.363,0.501-2.597,1.077-3.645,1.64c-1.035,0.653-1.913,1.26-2.613,1.811c-1.316,1.275-1.978,2.223-1.979,2.763
			c-0.001,0.545,0.653,0.695,1.716,0.545c0.532-0.075,1.165-0.224,1.872-0.437c0.715-0.202,1.581-0.35,2.467-0.611
			c1.804-0.475,3.965-0.871,6.379-1.306c2.426-0.363,5.153-0.772,8.12-1.214c2.97-0.477,6.873-0.653,11.152-0.884
			c4.269-0.233,8.983-0.633,13.266-2.242c4.293-1.658,8.395-3.979,11.257-6.826c1.426-1.422,2.499-3.001,3.083-4.564
			c0.589-1.57,0.602-3.084,0.441-4.304c-0.186-1.222-0.709-3.007-1.871-5.001c-1.171-1.987-2.963-4.164-5.245-6.316
			c-4.572-4.302-10.958-8.637-17.276-13.115c-6.363-4.434-12.798-8.98-17.975-13.341c-5.188-4.35-9.075-8.494-11.166-11.075
			c-2.083-2.572-4.855-6.225-6.799-10.932c-1.927-4.682-2.934-10.196-2.988-15.489c-0.18-10.675,3.127-20.046,4.33-23.304
			c1.134-3.354,4.195-9.415,8.465-14.46c4.145-5.142,8.992-9.391,11.194-11.224c2.142-1.858,5.077-3.394,7.893-4.72
			c2.818-1.295,5.613-2.238,7.751-2.75c1.792-0.422,3.112-0.734,3.997-0.943l0.284-0.079l0.013-0.033
			C160.303,308.376,160.38,307.882,160.38,307.882z"/>
		<path d="M161.745,469.326c8.645-2.051,12.335-2.713,13.715-2.165c0.672,0.301,0.657,0.941-0.055,1.723
			c-0.705,0.776-2.126,1.596-4.024,2.044c-7.348,1.706-14.671,3.407-20.53,4.768c-5.892,1.284-11.617,2.48-17.227,4.008
			c-2.798,0.747-6.961,1.985-9.174,3.572c-1.156,0.741-1.729,1.611-2.09,1.66c-0.157,0.033-0.206-0.119-0.099-0.536
			c0.104-0.418,0.342-1.134,1.02-1.923c1.322-1.592,2.701-2.631,3.986-3.493c1.286-0.895,2.524-1.603,3.824-2.269
			c2.604-1.334,5.494-2.495,9.924-3.612c4.461-1.062,9.54-2.086,13.705-2.741C158.786,469.763,161.745,469.326,161.745,469.326z"/>
		<path d="M172.084,473.927c5.816-2.552,9.082-1.706,9.784-0.741c0.746,1.042-0.548,2.337-2.916,2.627
			c-4.871,0.613-9.117,3.456-12.572,5.216c-3.501,1.781-6.888,3.79-10.431,5.639c-3.555,1.752-11.05,5.355-7.357,1.853
			c3.773-3.438,4.915-5.439,10.214-8.685c2.664-1.6,5.942-3.194,8.604-4.258C170.074,474.516,172.084,473.927,172.084,473.927z"/>
		<path d="M260.632,347.31c-6.022,0.385-13.547,1.183-21.549,2.935c-7.978,1.759-16.494,4.427-24.011,8.551
			c-7.508,4.109-13.88,9.675-17.977,15.858c-0.585,0.73-1.031,1.528-1.437,2.332c-0.431,0.794-0.856,1.576-1.275,2.343
			c-0.876,1.519-1.496,3.155-1.986,4.553c-0.98,2.897-1.082,5.043-0.595,6.896c0.471,1.873,1.728,3.783,3.239,5.548
			c1.768,1.981,3.466,3.882,5.103,5.718c3.323,3.711,6.4,7.287,9.078,10.93c5.395,7.234,9.046,14.994,10.491,23.104
			c0.746,4.052,1.177,8.973,0.698,14.375c-0.511,5.399-1.667,11.183-4.637,17.065c-1.408,2.939-3.516,5.595-5.788,8.07
			c-2.408,2.317-5.034,4.484-7.87,6.118c-5.626,3.44-11.595,5.548-17.12,7.399c-5.552,1.809-9.237,2.836-11.639,3.396
			c-2.353,0.591-3.484,0.591-3.661,0.174c-0.367-0.816,3.165-3.429,8.517-5.696c5.285-2.324,13.077-5.104,19.753-9.092
			c3.315-2.018,6.243-4.408,8.485-6.863c0.54-0.631,1.066-1.242,1.572-1.833c0.438-0.642,0.86-1.26,1.264-1.849
			c0.873-1.137,1.36-2.361,1.926-3.337c0.293-0.484,0.603-1.126,0.879-1.93c0.297-0.796,0.682-1.688,1.039-2.726
			c0.669-2.117,1.32-4.715,1.75-7.65c0.897-5.852,0.612-13.106-1.506-19.84c-2.067-6.757-5.941-12.737-9.581-17.239
			c-3.63-4.517-6.831-7.753-8.13-9.156c-0.67-0.686-1.655-1.695-2.881-2.95c-0.62-0.629-1.302-1.317-2.035-2.06
			c-0.764-0.791-1.563-1.671-2.341-2.686c-1.534-2.016-3.028-4.695-3.467-7.872c-0.451-3.168,0.162-6.406,1.105-9.323
			c0.903-2.939,2.376-5.612,3.678-8.323c0.716-1.312,1.599-2.504,2.374-3.726c0.401-0.602,0.796-1.2,1.186-1.787
			c0.454-0.536,0.902-1.064,1.341-1.585c0.887-1.035,1.743-2.038,2.559-2.992c0.914-0.853,1.783-1.664,2.597-2.425
			c1.588-1.581,3.162-2.682,4.381-3.577c4.868-3.616,12.188-6.988,19.873-9.54c7.692-2.616,15.707-4.634,22.309-7.171
			c6.63-2.5,10.155-2.959,12.648-2.658c2.508,0.407,4.061,1.563,7.019,3.045c2.96,1.501,4.848,3.278,4.373,4.707
			C269.91,346.029,267.115,346.917,260.632,347.31z"/>
		<path d="M331.126,364.173c-6.855-4.394-15.189-6.667-23.043-8.424c-7.874-1.739-15.602-3.232-21.386-5.439
			c-1.505-0.556-2.595-1.09-3.385-1.668c-0.359-0.27-0.769-0.604-1.085-0.983l-0.115-0.44l0.207-0.284l0.283-0.47
			c0.102-0.079,0.412-0.119,0.747-0.196c0.624-0.174,1.351-0.413,2.261-0.594c0.904-0.187,1.953-0.349,3.113-0.446
			c1.186-0.081,2.437-0.119,3.659-0.121c2.469,0.009,4.951,0.233,6.862,0.699c7.526,1.855,21.719,5.003,32.363,9.69
			c1.311,0.574,3.648,1.611,6.526,3.152c2.792,1.469,6.254,3.289,10.158,5.342c7.806,4.205,17.723,9.611,25.998,17.685
			c4.101,4.04,7.648,8.727,10.179,13.719c2.571,4.986,3.96,10.264,4.444,14.928c0.51,4.678,0.326,8.74,0.046,11.88
			c-0.291,3.146-0.643,5.408-0.817,6.621c-0.192,1.198-0.574,3.423-1.152,6.368c-0.568,2.922-1.285,6.608-2.105,10.82
			c-0.869,4.379-2.184,9.107-3.384,13.99c-0.6,2.442-1.147,4.933-1.562,7.441c-0.335,2.181-0.215,4.273,0.561,6.105
			c1.48,3.724,5.928,6.48,10.538,8.413c4.842,2.025,9.722,3.792,14.222,5.493c4.506,1.69,8.645,3.317,12.159,4.803
			c3.505,1.53,6.407,2.838,8.469,3.849c4.149,1.95,7.349,4.361,9.448,6.775c2.133,2.368,3.228,4.612,3.54,6.243
			c0.661,3.225-1.208,3.851-3.846,1.282c-1.465-1.198-3.829-3.465-7.198-5.621c-3.312-2.209-7.452-4.443-11.674-6.371
			c-8.449-3.838-17.049-6.823-19.254-7.725c-1.123-0.457-4.826-1.945-10.026-4.537c-2.574-1.372-5.533-3.159-8.039-5.979
			c-1.241-1.398-2.327-3.084-3.007-4.968c-0.679-1.886-0.917-3.924-0.801-5.887c0.109-2,0.55-3.834,0.96-5.625
			c0.421-1.805,0.894-3.581,1.371-5.318c0.956-3.473,1.933-6.799,2.692-9.886c0.775-3.078,1.263-5.933,1.717-8.351
			c0.453-2.411,0.784-4.385,0.945-5.762c0.303-2.755,0.962-6.747,1.422-11.402c0.484-4.649,0.578-10.002-0.354-15.269
			c-0.933-5.267-3.107-10.303-5.725-14.392c-2.601-4.113-5.583-7.281-7.859-9.433c-4.539-4.427-13.023-8.8-21.036-11.994
			c-4.04-1.614-7.897-3.155-11.106-4.434c-1.604-0.662-3.052-1.308-4.247-1.877C332.676,365.048,331.768,364.573,331.126,364.173z"
			/>
		<path d="M427.303,486.25c-3.726-0.75-6.529-1.732-8.291-2.869c-1.781-1.123-2.453-2.282-2.473-2.944
			c-0.026-0.677,0.562-0.983,1.362-0.954c0.811,0.029,1.896,0.343,3.253,0.978c5.469,2.55,12.448,2.495,17.328,5.625
			c4.681,2.761,8.6,6.329,12.087,10.051c1.743,1.884,4.193,4.792,5.737,6.687c1.549,1.877,2.038,2.95-0.727,1.22
			c-5.392-3.577-7.796-4.928-13.533-9.686c-2.848-2.326-6.366-4.904-9.249-6.122c-1.49-0.655-2.894-1.119-3.889-1.46
			C427.901,486.448,427.303,486.25,427.303,486.25z"/>
		<path d="M433.673,475.762c-3.611-1.108-6.223-2.416-7.795-3.821c-1.598-1.383-2.041-2.735-1.849-3.372
			c0.167-0.644,0.847-0.752,1.528-0.591c0.741,0.15,1.646,0.589,2.848,1.385c2.423,1.605,5.398,2.55,8.226,3.434
			c1.427,0.446,2.835,0.868,4.237,1.422c1.35,0.543,2.569,1.099,3.715,1.701c4.532,2.396,8.958,5.366,12.386,9.336
			c1.743,1.959,3.812,5.305,4.657,7.586c0.85,2.293,0.831,3.339-1.062,0.936c-1.967-2.357-3.64-3.724-5.417-5.12
			c-1.796-1.381-3.705-2.787-6.616-4.856c-2.92-2.047-6.606-4.197-9.565-5.696c-1.418-0.706-2.793-1.271-3.749-1.684
			C434.248,476.008,433.673,475.762,433.673,475.762z"/>
		<path d="M393.329,292.586c1.271,3.856,1.146,7.788,1.654,11.361c0.524,3.568,1.579,6.738,5.263,9.813
			c3.69,3.104,9.534,8.925,14.767,15.423c1.32,1.607,2.598,3.254,3.82,4.871c1.162,1.596,2.242,3.078,3.166,4.581
			c1.867,2.974,3.292,5.729,4.199,7.892c0.933,2.154,2.648,6.065,4.139,11.537c1.53,5.447,2.816,12.504,4.18,20.152
			c0.678,3.535,0.963,6.907,0.797,10.336c-0.189,3.403-0.911,6.914-1.767,10.572c-0.854,3.654-1.709,7.366-2.338,10.849
			c-0.522,3.031-1.395,5.832-2.229,8.459c-1.339,4.273-3.023,9.055-4.413,15.164c0.027,0.171-0.702,1.651-1.487,2.97
			c-0.859,1.451-1.73,2.919-2.607,4.401c-0.453,0.789-0.912,1.57-1.363,2.431l-0.353,0.662c-0.151,0.268-0.315,0.653-0.47,0.976
			c-0.291,0.677-0.678,1.332-0.89,2.025c-0.521,1.365-0.944,2.754-0.99,4.117l-0.047,1.022l0.181,0.994
			c0.118,0.657,0.329,1.328,0.534,1.97c1.103,2.031,2.965,3.489,5.156,4.588c0.531,0.29,1.09,0.539,1.654,0.778
			c0.507,0.233,1.244,0.521,1.548,0.631c0.758,0.284,1.501,0.539,2.232,0.778c2.927,0.954,5.716,1.697,8.383,2.411
			c2.66,0.71,5.202,1.37,7.508,2.053c1.15,0.341,2.247,0.688,3.211,1.042c0.964,0.349,1.795,0.747,1.941,0.904
			c2.494,1.802,4.572,3.223,5.936,4.5c1.86,1.708,2.538,2.609,3.692,4.135c1.098,1.462,2.368,3.053,3.711,4.177
			c1.345,1.143,2.676,1.778,3.627,1.954c0.972,0.172,1.546-0.035,1.763-0.453c0.447-0.886-0.539-2.423-1.797-4.874
			c-0.659-1.225-1.406-2.721-2.557-4.419c-1.119-1.715-2.911-3.471-5.251-4.772c-1.868-1.095-4.183-2.258-6.714-3.785
			c-1.784-0.969-4.189-1.501-6.602-2.146c-2.459-0.613-5.044-1.257-7.705-1.921c-2.665-0.69-5.406-1.433-8.144-2.37
			c-0.685-0.233-1.368-0.479-2.051-0.75c-0.743-0.292-1.526-0.627-2.253-0.996c-1.457-0.743-2.887-1.605-3.727-2.979
			c-0.858-1.987-0.009-4.135,0.827-5.988c0.953-1.976,1.849-3.377,2.792-4.889c0.936-1.458,1.848-2.875,2.725-4.243
			c0.833-1.363,1.678-2.675,2.015-3.928c1.842-6.72,3.835-11.541,4.698-13.678c0.423-0.976,1.107-2.816,1.903-5.342
			c0.846-2.535,1.41-5.828,2.379-9.422c0.921-3.625,2.205-7.617,3.165-12.005c1.001-4.379,1.329-9.2,0.952-13.909
			c-1.031-9.268-2.058-18.34-3.658-25.612c-1.53-7.261-3.733-12.407-4.147-14.018c-0.467-1.598-1.553-4.155-3.234-7.076
			c-1.643-2.957-3.971-6.171-6.317-9.334c-4.73-6.388-10.235-12.706-13.212-16.826c-2.915-4.164-7.09-8.16-10.949-10.813
			c-1.894-1.348-3.725-2.343-5.065-2.996C394.135,292.951,393.329,292.586,393.329,292.586z"/>
		<path d="M184.342,66.062c0,1.62-0.9,2.93-2.011,2.93c-1.111,0-2.011-1.31-2.011-2.93c0-1.618,0.9-2.93,2.011-2.93
			C183.442,63.132,184.342,64.444,184.342,66.062z"/>
		<path d="M217.091,81.272c0,1.079-1.736,1.954-3.878,1.954c-2.142,0-3.878-0.875-3.878-1.954c0-1.079,1.736-1.952,3.878-1.952
			C215.355,79.32,217.091,80.193,217.091,81.272z"/>
		<path d="M267.65,75.412c-3.721-2.53-2.585-15.907,2.01-17.303c4.597-1.394,7.47,0.558,7.47,5.023
			c0,4.467-0.575,10.328-2.586,12.28C272.533,77.366,270.522,77.366,267.65,75.412z"/>
		<path d="M188.652,42.761c-3.396-3.599-3.16-14.232,1.436-15.907c4.597-1.675,6.033-0.279,6.32,5.023
			C196.695,37.179,191.812,46.109,188.652,42.761z"/>
		<path d="M141.578,169.74c1.542,1.756,3.633,5.566,5.696,6.527c4.189,1.948,5.675-2.425,9.743-2.379
			c4.405,0.053,6.571,5.509,7.905-2.075c0.733-4.168-1.697-7.507-2.58-11.389C154.88,159.85,147.549,167.926,141.578,169.74z"/>
		<path d="M133.758,174.433c-1.952,4.141,1.646,9.809,1.485,14.522c-2.676,0.794-5.178,0.833-7.754-0.55
			c-1.565-0.838-1.755-2.541-2.961-3.467c-1.241-0.95-2.322,0.615-3.568-1.097c-4.998-6.874,6.589-9.424,10.334-11.468
			C131.912,173.006,133.307,174.09,133.758,174.433z"/>
		<path d="M144.185,315.204c4.365,0.011,5.167-0.062,8.224,2.517c2.994,2.526,3.993,5.781,8.201,6.894
			c4.477,1.183,6.135-0.259,9.616,4.111c2.684,3.368,6.496,8.408,7.27,12.598c-6.533,3.379-11.135-4.588-18.061-3.19
			c-6.668,1.345-11.123,1.809-18.138-0.04c-5.801-1.528-11.19-3.467-10.693-10.569C131.103,320.394,136.684,315.422,144.185,315.204
			z"/>
		<path d="M120.723,346.486c0.006-0.831,46.655,23.313,16.694,21.908c-4.005-0.187-8.166-2.416-12.315-2.238
			c-2.966,0.128-5.956,2.088-8.56,0.152C112.31,363.16,113.478,349.515,120.723,346.486z"/>
		<path d="M366.813,339.708c-0.497-3.665,2.407-4.592,5.07-5.764c4.19-1.842,7.435-3.665,11.308-6.287
			c6.749-4.566,17.879-10.352,26.545-9.336c10.187,1.191,20.573,15.579,5.73,17.782c-4.992,0.741-8.668,0.415-13.173,2.944
			c-4.859,2.724-7.208,8.296-11.874,10.464c-6.903,3.207-19.626-2.473-27.384-2.502
			C363.599,347.009,364.163,347.009,366.813,339.708z"/>
		<path d="M391.838,372.555c2.158-7.822,11.718-7.138,18.048-8.604c5.64-1.304,10.585-9.448,17.942-6.423
			c3.546,1.46,3.716,4.427,4.04,7.729c0.46,4.689,0.634,5.232-3.293,6.782c-2.723,1.075-5.564,0.739-8.372,2.381
			c-3.362,1.965-5.222,4.652-8.987,5.445c-6.864,1.449-15.543-2.161-21.997,0.745C385.061,375.378,389.521,373.819,391.838,372.555z
			"/>
		<path d="M342.307,191.118c-6.034-0.013-3.926,11.8,2.129,12.517c3.682,0.438,5.671-1.776,8.964-1.721
			c2.603,0.042,6.456,4.344,7.723-1.411c1.127-5.115-9.415-10.103-13.184-11.6C340.278,185.862,337.416,187.88,342.307,191.118z"/>
		<path d="M321.974,96.227c-2.759,1.238-4.595,7.701-4.132,10.844c1.75,0.543,4.577,0.985,6.005,2.212
			c2.582,2.216,0.932,3.539,2.302,5.698c2.03,3.205,6.235,4.425,8.493-0.492c1.947-4.24-0.824-9.466-3.283-12.741
			C329.848,99.733,323.08,92.435,321.974,96.227z"/>
		<path d="M274.782,135.383c1.208,2.181,2.085,4.55,2.651,7.129c0.604,2.638,1.183,5.197,1.274,7.518
			c0.153,2.321-0.366,4.326-1.294,5.23c-0.452,0.431-1.035,0.758-1.472,0.829c-0.431,0.092-0.828,0.031-1.161-0.09
			c-1.31-0.422-3.194-1.677-4.797-2.684c-1.613-0.969-3.058-1.646-4.18-0.593c-0.902,0.855-0.225,2.878,1.478,4.59
			c1.638,1.732,4.483,3.064,6.641,2.926c0.525-0.044,1.388-0.022,2.494-0.378c1.112-0.374,2.297-1.031,3.237-2.196
			c0.957-1.154,1.505-2.695,1.664-4.214c0.172-1.53,0.044-3.073-0.193-4.59c-0.51-3.051-1.371-5.971-2.149-8.718
			c-0.843-2.752-2.002-5.058-2.883-6.68c-3.544-6.593-10.075-12.48-13.29-16.529c-1.648-1.994-3.596-2.888-4.542-2.546
			c-0.921,0.308-0.764,2.152,2.404,5.082c3.158,2.875,5.359,4.816,7.492,7.087C270.239,128.834,272.489,131.274,274.782,135.383z"/>
	</g>
</g>
</svg>
