<?xml version="1.0" encoding="iso-8859-1"?>
<!-- Generator: Adobe Illustrator 22.1.0, SVG Export Plug-In . SVG Version: 6.00 Build 0)  -->
<svg version="1.1" id="_x35_" xmlns="http://www.w3.org/2000/svg" xmlns:xlink="http://www.w3.org/1999/xlink" x="0px" y="0px"
	 viewBox="0 0 512 512" style="enable-background:new 0 0 512 512;" xml:space="preserve">
<g>
	<path style="fill:#65D69D;" d="M414.141,415.06c-10.444-3.335-29.629,0.246-30.823,0.474c0.983-0.369,16.71-6.424,20.046-8.811
		c3.423-2.458,21.08-0.492,4.897-6.372c-16.166-5.88-37.738,6.863-46.568,10.286c-8.811,3.44-4.405-3.423-5.88-7.355
		c-1.475-3.914-0.491-9.794,2.949-15.674c3.423-5.88,22.046-44.127,22.046-44.127s4.423-25.486,0.491-39.213
		c-3.914-13.726-11.76-16.658-25.487-30.875c-13.726-14.217-8.337-19.606-8.337-19.606l-3.423-34.807l4.406-50.482
		c0,0,0.492-21.08,2.457-30.383c1.966-9.321,17.641-37.756,17.641-37.756s6.863-6.863,5.88-14.218
		c-0.983-7.354-20.098-22.046-26.47-26.47c-6.371-4.405-13.726-10.286-11.269-14.2c2.457-3.932,7.354-17.167,4.405-24.521
		c-2.931-7.355-17.64-0.983-21.554,1.966c-3.932,2.931-7.846,2.931-7.846,2.931s-6.371-9.303-12.252-15.674
		c-5.88-6.371-22.063-12.743-28.927-6.863c-3.423-0.983-19.115-0.983-20.098,10.777c-3.914,0.491-9.32,7.355-6.372,13.726
		c2.949,6.371,13.234,4.897,13.234,4.897s2.458,6.371-2.457,11.286c-4.897,4.897-24.995,16.166-27.435,14.218
		c-2.458-1.966-15.201-17.167-23.538-17.658c-8.338-0.492-14.217,17.658-14.217,17.658s-7.355-7.355-12.743-1.475
		c-2.931-3.932-14.709-7.846-20.589,4.897c-9.794-0.983-20.589,18.132-16.166,24.995c4.405,6.863,7.846,14.217,5.88,20.098
		c-1.966,5.88-24.995,23.538-42.162,39.704c-17.149,16.183-16.657,40.687-8.337,50.499c8.337,9.794,39.704,22.537,50.991,26.961
		c0,0-4.423,17.641-4.423,19.115c0,1.457-6.371,51.464-0.965,60.293c5.389,8.811,19.607,29.401,19.607,29.401
		s-28.436,50.482-20.098,62.259c8.32,11.761,29.892,34.79,38.23,45.093c8.337,10.286,1.966,21.081-1.966,27.944
		c-3.914,6.863-14.709,7.354-24.504,13.235c-9.812,5.88-14.218,15.183-9.812,14.691c4.423-0.474,26.469-7.828,26.469-7.828
		s-27.926,23.521-18.623,21.555c9.18-1.913,36.861-20.466,37.721-21.046c-0.175,0.386-6.407,12.849-9.777,20.08
		c-3.44,7.337,7.847,0.966,13.726-4.423c5.88-5.388,28.435-23.52,31.858-29.892c3.44-6.371,3.44-18.623-1.475-26.469
		c-4.897-7.846-6.372-15.692-11.269-35.299c-4.897-19.606,14.709-52.447,28.927-66.665c14.2-14.217,30.384-15.2,45.585-21.572
		c15.183-6.371,35.281-0.492,43.127,12.269c7.846,12.743-0.983,51.465-5.88,65.682c-4.897,14.2-10.777,32.841-0.492,42.144
		c10.304,9.32,25.978,5.388,36.281,0c10.286-5.389,40.196-9.794,40.196-9.794s13.234-0.983,8.811-4.423
		c-4.405-3.423-19.606-3.914-19.606-3.914s17.167-5.389,20.589-4.897C412.192,421.923,424.936,418.483,414.141,415.06z
		 M314.231,111.241c-0.632-0.632-3.124-25.715,3.756-37.001l14.428,16.939C332.416,91.178,314.863,111.855,314.231,111.241z"/>
	<path style="fill:#FFFFFF;" d="M312.57,65.447c-7.56,6.048-42.336,29.484-60.48,40.068s-29.484,27.216-34.776,36.288
		c-5.292,9.072-3.024,19.656,7.56,21.168c10.584,1.512,14.364-2.268,14.364-2.268s-23.436,45.36-26.46,71.82
		c-3.024,26.46,11.34,64.259,36.288,76.355c24.948,12.096,76.355-7.56,90.719-27.216c14.364-19.656,18.9-57.456,20.412-75.599
		c1.512-18.144-15.12-47.628-25.704-55.944c-10.584-8.316-19.656-30.24-22.68-36.288c-3.024-6.048,3.024-39.312,6.048-46.116
		C320.886,60.91,312.57,65.447,312.57,65.447z"/>
	<g>
		<path d="M191.425,61.27c-1.405,7.42-1.12,12.847-0.454,16.233c0.673,3.397,1.846,4.984,2.164,6.092
			c0.339,1.074-0.495,1.7-2.481,0.898c-1.965-0.776-4.334-3.667-4.956-7.404c-0.701-3.71-0.636-7.276-0.351-10.75
			c0.331-3.466,0.95-6.836,1.884-10.073c0.947-3.232,2.177-6.341,4.004-9.192c0.935-1.416,2.021-2.777,3.433-3.957
			c0.699-0.589,1.505-1.125,2.401-1.554c0.972-0.471,1.75-0.644,2.553-0.863c3.256-0.836,6.788-0.393,9.736,0.671
			c2.949,1.112,5.478,2.717,7.724,4.425c4.474,3.48,8.13,7.107,12.138,10.442c1.978,1.669,4.453,3.706,7.087,5.479
			c2.63,1.773,5.435,3.283,7.689,4.358c2.249,1.079,3.899,1.804,4.114,2.224c0.227,0.372-1.001,0.53-4.345-0.207
			c-6.658-1.599-11.216-3.665-15.708-6.242c-2.243-1.306-4.46-2.783-6.873-4.567c-2.424-1.757-5.01-3.976-7.994-6.193
			c-2.989-2.213-6.355-4.128-9.539-4.282l-1.185,0.011l-1.171,0.153l-1.147,0.287c-0.258,0.121-0.525,0.178-0.805,0.367
			c-1.135,0.605-2.277,1.838-3.19,3.105c-1.855,2.588-3.004,5.38-3.715,7.335C191.726,60.047,191.425,61.27,191.425,61.27z"/>
		<path d="M265.841,14.141c-3.187,3.416-5.285,8.036-6.376,12.507c-1.2,4.49-1.665,8.935-3.179,12.32
			c-1.473,3.392-4.03,5.872-6.447,7.606c-2.366,1.676-4.706,2.514-6.363,2.935c-3.294,0.836-7.673,1.88-11.072,3.732
			c-1.681,0.894-3.036,2.053-3.713,3.109c-0.673,1.115-0.685,2.06,0.046,2.82c1.245,1.209,3.72,0.603,6.898-0.198
			c3.134-0.84,7.066-2.261,9.381-3.784c1.125-0.765,3.943-2.088,7.112-4.761c1.574-1.347,3.114-2.942,4.565-4.919
			c1.437-1.96,2.629-4.331,3.337-6.818c1.354-4.998,1.604-10.013,3.066-14.325c1.345-4.267,3.791-7.663,5.979-9.427
			c2.15-1.804,4.941-3.016,7.694-2.595c1.375,0.121,2.703,0.731,3.922,1.407c1.148,0.757,2.195,1.65,2.973,2.813
			c1.647,2.235,2.558,5.01,3.475,7.571c0.898,2.585,1.768,5.074,2.954,7.176c1.162,2.111,3.082,3.613,4.733,3.922
			c0.779,0.253,1.5,0.178,2.029,0.053c0.529-0.127,0.883-0.342,1.07-0.613c0.367-0.538,0.11-1.33-0.71-2.051
			c-0.764-0.885-1.935-1.708-3.63-4.156c-3.312-5.234-4.197-10.839-8.418-15.218c-2.17-2.155-5.016-3.696-8.639-4.017
			C272.854,8.998,268.791,10.81,265.841,14.141z"/>
		<path d="M307.44,30.148c2.87-1.854,5.485-4.424,8.355-7.116c2.866-2.674,6.173-5.489,10.317-7.197
			c2.104-0.783,4.188-1.377,6.555-1.472c2.326-0.081,5.042,0.477,7.113,2.177c2.078,1.675,3.128,3.994,3.639,6.025
			c0.535,2.075,0.515,3.986,0.456,5.778c-0.1,1.771-0.486,5.203-2.19,9.343c-1.465,4.212-4.374,9.165-8.559,13.896
			c-4.186,4.747-9.662,9.201-15.751,13.196c-6.088,4.014-12.747,7.685-19.29,11.435c-3.266,1.881-6.513,3.776-9.587,5.802
			c-3.119,2.09-6.206,4.161-9.224,6.185c-6.097,4.015-11.939,7.747-17.093,11.233c-10.363,6.905-17.767,13.051-20.594,15.923
			c-2.886,2.815-5.772,5.824-8.693,9.274c-2.906,3.465-6.108,7.427-8.89,12.024c-2.721,4.565-5.15,10.262-4.099,16.282
			c0.503,2.816,2.129,5.573,4.827,7.242c2.629,1.715,6.251,2.243,9.464,0.85c2.345-0.894,4.549-2.872,6.178-5.424
			c1.62-2.609,2.678-5.947,3.341-9.531c1.319-7.205,1.368-15.147,2.089-22.338c0.663-7.173,2.218-13.917,5.282-18.104
			c1.476-2.094,3.142-3.396,4.289-4.202c1.21-0.726,1.889-1.077,1.889-1.077c0.195,0.102-0.628,0.668-1.948,1.889
			c-1.332,1.199-3.033,3.279-4.183,6.156c-2.472,5.762-2.521,14.07-2.469,22.846c0.01,4.407,0.026,8.99-0.431,13.55
			c-0.472,4.533-1.408,9.142-3.645,13.059c-1.114,1.943-2.518,3.684-4.134,5.07c-1.666,1.314-3.429,2.447-5.311,3.01
			c-3.724,1.292-7.346,0.778-9.845-0.141c-2.519-0.933-5.107-2.63-6.994-5.175c-1.912-2.505-3.048-5.834-3.203-9.166
			c-0.408-6.771,2.577-13.43,6.139-18.808c3.619-5.44,7.621-10.159,11.375-14.087c3.772-3.873,7.207-6.876,9.623-8.825
			c2.377-2,7.79-6.29,14.949-11.25c7.129-5,15.998-10.655,24.473-16.568c8.464-6.183,17.634-11.134,24.551-15.431
			c7.012-4.227,11.837-7.882,13.452-9.282c3.259-2.727,8.932-7.564,13.391-14.847c0.559-0.904,0.985-1.901,1.503-2.87
			c0.549-0.958,0.923-2.01,1.304-3.075c0.866-2.106,1.457-4.315,1.735-6.568c0.271-2.217,0.243-4.56-0.401-6.274
			c-0.652-1.798-1.513-2.456-2.986-2.753c-1.531-0.262-3.732,0.192-5.484,0.82c-1.79,0.637-3.417,1.534-4.94,2.5
			c-3.034,2.001-5.679,4.159-8.196,5.781c-2.499,1.645-4.842,2.752-6.849,3.366c-2.049,0.557-3.695,0.731-5,0.641
			c-2.576-0.164-1.347-1.009,0.215-1.744c0.77-0.473,1.678-0.865,2.335-1.32C306.962,30.45,307.44,30.148,307.44,30.148z"/>
		<path d="M225.314,142.883c-1.184-1.478-1.538-3.167-1.171-4.249c0.264-1.079,1.013-1.462,1.445-1.477
			c0.486-0.016,0.909,0.298,1.195,0.619c0.259,0.333,0.393,0.65,0.338,1.101c-0.123,0.949,0.52,2.002,1.283,2.789
			c0.781,0.811,1.718,1.431,2.451,2.081c1.493,1.302,3.192,2.42,4.821,3.716c0.809,0.669,2.019,1.728,2.81,2.52
			c0.787,0.762,1.126,1.387-0.309,1.157c-2.779-0.59-4.198-0.406-7.152-2.254c-1.448-0.967-2.991-2.339-4.054-3.611
			C225.885,144.03,225.314,142.883,225.314,142.883z"/>
		<path d="M233.279,131.667c-2.401-1.804-2.482-3.512-1.923-4.292c0.576-0.808,1.766-0.883,2.324,0.072
			c1.155,1.965,3.357,2.859,4.724,3.832c1.39,1.015,2.863,1.845,4.3,2.907c1.342,1.103,4.544,3.614,2.179,3.347
			c-2.375-0.346-3.645,0.04-6.297-1.393c-1.31-0.738-2.699-1.826-3.685-2.772C233.909,132.425,233.279,131.667,233.279,131.667z"/>
		<path d="M231.648,179.223c-2.112,0.476-4.402,0.559-6.545,0.053c-2.111-0.428-4.199-1.613-6.036-2.735
			c-3.687-2.329-6.249-5.066-7.172-6.701c-0.957-1.645-2.136-3.467-3.287-4.777c-1.182-1.275-2.392-2.207-4.002-1.47
			c-1.26,0.583-1.338,2.562-0.484,4.59c0.861,2.004,2.59,3.839,3.914,4.668c1.322,0.862,5.342,4.19,10.364,6.59
			c1.256,0.602,2.548,1.186,3.902,1.633c0.678,0.231,1.375,0.42,2.069,0.529c0.688,0.141,1.364,0.271,2.037,0.283
			c2.673,0.192,5.056-0.184,6.709-0.603c3.379-0.709,6.737-2.508,9.563-4.542c2.839-2.041,5.156-4.359,6.823-6.22
			c1.695-1.885,1.705-4.135,0.92-4.872c-0.844-0.772-2.182-0.203-4.062,2.824c-1.968,3.025-3.827,4.905-5.983,6.571
			C238.202,176.654,235.669,178.238,231.648,179.223z"/>
		<path d="M173.59,75.315c0.383,2.346,0.672,3.67,0.832,4.661c0.138,1.003,0.244,1.809,0.071,2.49
			c-0.175,0.675-0.656,1.119-1.471,1.033c-0.805-0.053-1.86-0.836-2.361-2.141c-0.963-2.59-1.166-4.923-1.426-7.095
			c-0.209-2.169-0.333-4.118-0.315-5.732c0.029-2,0.4-4.071,1.276-5.981c0.853-1.913,2.276-3.617,4.029-4.725
			c1.732-1.229,4.779-1.765,6.52-1.4c1.782,0.356,2.337,0.958,0.435,1.537c-1.885,0.698-2.918,1.675-3.782,2.693
			c-0.853,1.048-1.566,2.143-2.36,3.94c-0.389,0.91-0.687,1.982-0.838,3.099c-0.112,1.32-0.221,2.614-0.317,3.753
			C173.642,73.765,173.59,75.315,173.59,75.315z"/>
		<path d="M158.56,76.834c0.264,6.379,0.172,8.432-0.512,9.759c-0.37,0.627-0.999,0.839-1.815,0.31
			c-0.769-0.511-1.517-1.769-1.619-3.297c-0.198-3.025-0.221-5.79-0.316-8.427c-0.042-1.285-0.084-2.539-0.124-3.738
			c-0.023-0.579-0.045-1.145-0.066-1.696c0.005-0.671-0.002-1.341,0.095-1.946c0.652-4.858,2.548-9.425,6.112-12.862
			c0.887-0.844,2.179-1.756,3.596-2.353c1.407-0.623,2.944-0.83,4.058-0.727c2.277,0.354,2.748,1.026,0.452,1.53
			c-2.279,0.816-3.382,2.235-4.376,3.686c-0.958,1.51-1.896,3.163-3.039,5.83c-0.584,1.325-1.084,2.837-1.415,4.317
			c-0.36,1.489-0.4,2.795-0.527,4.506C158.772,74.681,158.56,76.834,158.56,76.834z"/>
		<path d="M146.813,95.718c1.134,1.788,1.885,3.581,2.122,5.381c0.221,1.763-0.042,3.117-0.282,4.078
			c-0.523,1.906-1.074,2.85-1.662,3.336c-0.592,0.458-1.274,0.271-1.778-0.586c-0.514-0.839-0.688-2.368-0.476-3.847
			c0.201-1.502,0.103-2.691-0.423-3.992c-0.504-1.304-1.271-2.525-2.134-3.716c-1.71-2.355-3.837-4.783-4.88-7.599
			c-1.105-2.7-1.683-5.829-1.277-8.886c0.43-3.05,1.75-5.797,3.398-8.046c1.637-2.316,4.69-4.958,6.769-6.368
			c2.09-1.416,3.223-1.71,1.32,0.913c-1.884,2.623-2.96,4.618-3.927,6.707c-0.931,2.096-1.894,4.259-2.337,7.387
			c-0.409,3.13,0.764,6.928,2.475,9.793c0.897,1.535,1.672,2.86,2.223,3.802C146.507,95.075,146.813,95.718,146.813,95.718z"/>
		<path d="M188.348,95.526c-0.392-1.978-0.847-3.532-1.384-4.708c-0.544-1.214-1.189-2.274-1.69-3.259
			c-1.048-1.969-1.29-3.461-0.962-4.163c0.304-0.716,1.031-0.751,1.854-0.323c0.826,0.446,1.838,1.298,2.895,2.921
			c1.048,1.611,2.105,3.53,2.662,5.5c0.579,1.902,0.895,3.8,1.11,5.624c0.202,1.823,0.29,3.575,0.325,5.218
			c0.005,0.817,0.009,1.615,0.013,2.393c-0.039,0.825-0.051,1.632-0.151,2.406c-0.698,6.131-2.94,12.504-7.769,16.92
			c-1.214,1.061-2.88,2.242-4.723,2.953c-1.796,0.798-3.715,1.075-5.136,1.138c-2.908-0.074-3.855-0.611-0.568-1.495
			c3.236-1.166,5.012-2.84,6.567-4.692c1.503-1.92,2.952-4.047,4.424-7.703c0.736-1.824,1.377-3.897,1.765-6.001
			c0.399-2.089,0.549-4.187,0.687-6.198C188.573,98.16,188.348,95.526,188.348,95.526z"/>
		<path d="M123.969,127.419c5.608-4.936,9.204-8.661,11.921-11.289c2.704-2.597,4.465-3.958,5.58-4.157
			c2.165-0.496,1.599,3.793-2.877,8.681c-4.413,4.843-9.41,9.236-13.889,13.147c-4.508,4.008-8.614,7.821-12.095,11.227
			c-1.749,1.698-3.406,3.455-4.928,5.289c-1.534,1.864-3.137,3.874-4.598,5.796c-2.953,3.885-5.549,7.852-7.145,12.156
			c-1.528,4.348-3.281,11.767-2.747,16.274c0.194,2.286,1.213,3.739,1.248,4.225c0.003,0.242-0.258,0.226-0.907-0.208
			c-0.631-0.432-1.52-1.445-2.137-3.106c-1.191-3.326-1.293-6.182-1.403-8.79c-0.07-2.619,0.05-5.005,0.342-7.506
			c0.602-5.144,2.791-10.599,7.446-16.924c1.161-1.587,2.414-3.176,3.685-4.749c1.288-1.603,2.742-3.258,4.206-4.749
			c2.942-3.019,6.035-5.654,8.776-7.882C119.944,130.44,123.969,127.419,123.969,127.419z"/>
		<path d="M156.416,146.021c1.2-3.652,1.845-6.64,2.851-8.698c0.956-2.064,2.052-3.097,2.933-3.3
			c1.757-0.353,2.742,1.969,1.687,5.364c-0.55,1.724-0.999,3.545-1.53,5.375c-0.502,1.798-1.231,3.752-1.86,5.3
			c-1.265,3.249-2.494,6.342-3.915,8.92c-2.828,5.154-5.986,10.165-9.921,14.573c-3.893,4.547-13.427,11.548-9.319,5.62
			c3.941-5.997,4.572-9.018,9.128-16.116c2.253-3.575,4.825-7.79,6.733-11.18c0.943-1.703,1.758-3.174,2.337-4.219
			C156.09,146.63,156.416,146.021,156.416,146.021z"/>
		<path d="M159.26,176.057c-5.442,1.27-7.974,0.707-9.129-0.614c-1.121-1.276-0.169-3.425,2.499-3.706
			c5.157-0.464,10.016-1.984,13.955-2.18l1.462-0.065l1.633-0.02c1.088,0.027,2.165,0.102,3.198,0.251
			c2.083,0.282,4.022,0.781,5.874,1.4c1.86,0.636,4.479,1.822,6.251,2.655c1.755,0.823,2.669,1.625,0.094,1.999
			c-5.065,0.516-7.441,1.071-12.85,0.486c-1.363-0.135-2.687-0.227-4.12-0.221c-1.535-0.005-3.042-0.009-4.368-0.014
			C161.156,176.046,159.26,176.057,159.26,176.057z"/>
		<path d="M111.333,210.953c-7.586-3.211-12.67-6.609-15.87-9.306c-3.2-2.728-4.535-4.783-4.728-5.905
			c-0.313-2.283,3.732-1.037,9.019,2.79c10.788,7.715,23.797,11.455,33.784,14.931l15.252,5.148
			c5.066,1.74,10.078,3.458,15.129,5.019c2.597,0.788,5.712,1.899,8.799,2.66c0.772,0.189,1.553,0.361,2.309,0.499
			c0.704,0.138,1.476,0.203,2.238,0.267c1.53,0.12,3.056,0.21,4.362,0.499c2.71,0.5,4.027,2.013,3.969,2.421
			c-0.082,0.534-0.795-0.3-3.771-0.41c-1.524-0.027-3.021,0.211-4.521,0.381c-1.497,0.203-3.114,0.222-4.462,0.162
			c-2.798-0.105-5.325-0.448-7.855-0.831c-5.034-0.73-10.523-1.889-18.234-4.418c-7.663-2.541-16.657-5.542-23.608-8.482
			C116.196,213.513,111.333,210.953,111.333,210.953z"/>
		<path d="M139.682,251.899c0.188-3.809,0.19-7.277,0.511-10.304c0.295-3.023,0.818-5.594,1.547-7.644
			c1.472-4.15,3.558-5.942,4.661-6.164c1.108-0.263,1.395,0.743,1.202,2.219c-0.183,1.516-0.672,3.726-1.365,6.743
			c-0.69,3.029-0.912,6.267-1.04,9.526c-0.091,3.257-0.277,6.676-0.512,9.805c-0.459,6.348-0.935,12.279-1.403,17.466
			c-0.487,5.201-0.707,10.31-0.583,15.469c0.122,5.131,0.519,10.226,1.578,15.091c0.529,2.462,1.389,5.306,2.763,8.233
			c1.302,2.898,2.863,5.687,4.129,7.835c1.26,2.152,2.196,3.682,2.139,4.144c-0.035,0.443-1.116-0.139-3.452-2.602
			c-8.827-9.863-12.85-16.093-13.722-32.449c-0.403-8.23,0.73-17.749,1.798-24.953C139.007,257.074,139.682,251.899,139.682,251.899
			z"/>
		<path d="M313.243,79.106c2.018-9.499,5.976-12.884,7.696-12.898c0.912-0.038,1.447,0.682,1.531,1.752
			c0.065,1.065-0.3,2.482-1.167,4.125c-3.533,6.644-3.934,14.494-4.763,20.363c-0.844,5.948-1.223,11.919-1.437,17.889
			c-0.141,2.993-0.201,7.494-0.109,10.476c0.166,2.926-0.145,4.52-1.833,0.8c-1.481-3.751-2.456-6.486-3.141-9.463
			c-0.742-2.98-1.179-6.234-0.995-11.067c0.207-4.834,1.072-10.393,2.13-14.667C312.18,82.133,313.243,79.106,313.243,79.106z"/>
		<path d="M346.161,170.629c-1.419-2.272-2.709-4.397-3.883-6.391c-1.274-1.926-2.629-3.587-3.75-5.215
			c-0.584-0.795-1.092-1.602-1.658-2.31c-0.594-0.684-1.161-1.34-1.703-1.966c-1.074-1.263-2.027-2.431-2.868-3.508
			c-0.793-1.127-1.71-1.92-2.405-2.746c-0.717-0.803-1.32-1.529-1.817-2.178c-0.994-1.297-1.564-2.288-1.765-2.972
			c-0.403-1.371,0.682-1.515,2.805-0.477c1.059,0.518,2.375,1.329,3.869,2.414c0.727,0.563,1.581,1.108,2.32,1.875
			c0.743,0.764,1.514,1.597,2.3,2.496l2.373,2.678c0.392,0.448,0.807,0.876,1.182,1.337l1.044,1.446
			c1.408,1.912,2.812,3.818,4.208,5.711c1.208,2.018,2.408,4.023,3.596,6.009l0.9,1.483l0.743,1.553
			c0.492,1.034,0.981,2.062,1.469,3.085c0.488,1.023,0.975,2.04,1.456,3.049c0.446,1.023,0.775,2.081,1.164,3.11
			c0.724,2.072,1.535,4.091,2.139,6.119c1.005,4.101,2.168,8.021,2.523,11.82c0.234,1.89,0.551,3.774,0.709,5.669l0.285,5.695
			l0.125,2.847l-0.084,2.843l-0.193,5.683c-0.668,7.538-1.76,15.046-3.867,22.281c-0.538,1.804-1.037,3.86-1.804,5.95
			c-0.784,2.076-1.609,4.256-2.428,6.423c-0.834,2.154-1.901,4.204-2.802,6.155c-0.905,1.952-1.817,3.741-2.748,5.234
			c-3.565,6.039-5.393,8.13-2.022-0.361c0.889-2.105,1.543-4.118,2.117-6.027c0.586-1.903,1.158-3.68,1.638-5.409
			c0.774-3.514,1.661-6.689,2.22-10.051c0.543-3.364,1.294-6.787,1.712-10.774c0.635-3.955,0.967-8.438,1.424-13.804
			c0.747-10.755-0.264-23.359-2.78-32.864c-1.408-4.687-2.564-8.783-3.881-11.494c-0.581-1.389-1.043-2.495-1.361-3.254
			C346.349,171.034,346.161,170.629,346.161,170.629z"/>
		<path d="M174.499,327.405c-6.401-0.512-13.488-3.519-19.304,4.851c-2.818,4.202-7.278,11.335-10.684,19.175
			c-3.504,7.779-5.652,16.339-6.136,21.723c-0.354,2.647-0.577,7.649,0.337,13.889c0.32,1.547,0.657,3.174,1.008,4.866
			c0.511,1.654,1.1,3.355,1.689,5.102c0.627,1.731,1.553,3.399,2.356,5.144c0.771,1.736,2.029,3.551,3.131,5.131
			c4.665,6.26,9.992,11.439,14.671,16.518c4.708,5.012,8.79,9.755,11.523,13.746c2.681,3.961,5.77,8.753,7.047,13.795
			c0.631,2.506,0.734,4.983,0.115,7.302c-0.6,2.324-1.977,4.545-3.867,6.525c-3.773,4.089-9.111,6.713-14.165,8.848
			c-2.631,1.093-5.094,2.117-7.328,3.046c-2.629,1.093-4.632,2.42-6.26,3.325c-4.588,2.698-7.369,5.002-8.953,6.508
			c-0.776,0.751-1.189,1.286-1.294,1.716c-0.1,0.254,0.063,0.339,0.034,0.628c0.027,0.524-0.011,0.766-0.002,0.708
			c0.029,0.174,0.102,0.792,0.775,0.906c0.64,0.202,1.66,0.036,2.863-0.388c2.429-0.882,5.528-3.022,9.201-6.262
			c1.524-1.326,3.518-2.924,6.067-4.143c2.493-1.289,5.346-2.551,8.3-3.953c2.951-1.406,6.001-2.987,8.813-4.991
			c2.759-2.052,5.407-4.4,7.211-7.247c1.834-2.82,2.726-6.08,2.69-9.21c-0.013-3.137-0.827-6.082-1.776-8.615
			c-1.945-5.088-4.323-8.664-5.224-10.379c-0.921-1.715-3.932-6.084-8.38-11.389c-4.373-5.354-10.258-11.613-15.229-18.342
			c-5.063-6.6-7.26-14.789-7.669-21.159c-0.038-1.604-0.074-3.104-0.107-4.472c0.121-1.363,0.23-2.598,0.326-3.674
			c0.174-2.149,0.676-3.639,0.84-4.314c0.387-1.359,1.023-3.588,1.799-6.313c0.88-2.699,1.957-5.868,3.368-9.019
			c2.757-6.329,6.724-12.523,9.736-15.587c2.986-3.087,6.07-6.591,8.451-9.314C172.853,329.368,174.499,327.405,174.499,327.405z"/>
		<path d="M173.141,483.271c3.718-2.152,6.791-3.192,9.023-3.42c2.211-0.307,3.523,0.136,3.979,0.487
			c0.476,0.404,0.201,0.939-0.546,1.405c-0.755,0.453-1.972,0.822-3.575,1.237c-3.213,0.786-6.294,2.291-8.992,4.06
			c-2.728,1.725-5.16,3.606-7.372,5.208c-4.429,3.211-8.644,6.741-13.013,10.141c-4.382,3.359-13.41,10.081-8.722,4.916
			c4.76-5.103,6.212-7.678,12.7-13.099c3.256-2.697,7.277-5.596,10.598-7.654C170.557,484.508,173.141,483.271,173.141,483.271z"/>
		<path d="M191.017,486.135c5.772-4.065,9.619-3.85,10.408-3.137c0.448,0.364,0.304,0.91-0.231,1.421
			c-0.543,0.492-1.466,0.973-2.736,1.405c-5.157,1.748-9.28,5.739-12.644,8.501c-3.408,2.802-6.616,5.843-9.874,8.859
			c-1.623,1.482-4.092,3.735-5.71,5.212c-1.568,1.459-2.495,1.952-1.064-0.562c1.497-2.452,2.527-4.214,3.774-5.991
			c1.23-1.794,2.669-3.618,5.16-6.019c2.496-2.396,5.636-4.948,8.263-6.746C188.974,487.255,191.017,486.135,191.017,486.135z"/>
		<path d="M270.086,326.032c-3.9,3.936-5.243,6.231-6.788,7.921c-1.492,1.762-3.109,2.904-6.856,5.148
			c-3.743,2.252-9.978,7.31-15.454,12.951c-5.492,5.604-10.255,11.726-12.387,14.557c-2.195,3.071-9.761,13.585-12.458,25.584
			c-1.434,5.968-1.647,12.159-1.432,17.305c0.175,5.137,0.704,9.137,0.932,10.869c0.479,3.474,1.969,7.261,3.371,10.788
			c1.397,3.548,2.696,6.81,2.738,9.713c-0.016,2.977,2.157,8.526,4.181,14.371c0.98,2.931,1.873,5.988,2.217,8.833
			c0.384,2.824,0.333,5.345,0.273,6.923c0.028,3.24-2.021,7.134-4.573,9.926c-0.602,0.758-1.269,1.407-1.935,2.014
			c-0.656,0.609-1.292,1.254-1.892,1.785c-1.182,1.057-2.294,2.04-3.151,2.955c-1.699,1.846-3.781,3.567-5.569,4.824
			c-1.79,1.264-3.27,2.199-4.386,2.805c-0.541,0.293-1.453,0.642-2.357,0.991c-0.902,0.329-1.939,0.79-2.97,1.331
			c-2.057,1.112-4.061,2.665-4.752,4.404c-0.676,1.725-3.012,3.363-5.334,4.515c-2.305,1.164-4.536,1.703-4.536,1.703
			s0.078-0.966,0.5-2.247c0.414-1.295,1.126-2.901,2.511-4.316c1.393-1.417,3.175-2.82,4.636-3.847
			c1.459-1.028,2.591-1.666,2.591-1.666s1.512-0.919,3.227-1.961c1.693-1.034,3.667-2.068,4.384-2.815
			c1.44-1.526,5.409-4.854,8.619-5.848c1.684-0.482,4.249-2.862,6.261-5.662c2.029-2.814,3.196-5.996,3.675-7.472
			c0.575-1.443,1.589-4.645,1.489-7.88c0.015-3.221-0.761-6.249-1.004-7.182c-0.255-0.953-2.1-4.93-4.37-9.163
			c-2.274-4.217-4.462-9.145-5.099-11.713c-0.722-2.545-2.354-8.094-3.476-13.446c-1.176-5.336-1.851-10.466-1.934-11.798
			c-0.039-1.311-0.153-8.236,1.321-15.47c1.339-7.261,4.589-14.256,5.819-16.929c1.144-2.737,3.959-8.904,7.273-14.659
			c3.374-5.928,7.558-11.06,9.328-13.033c3.501-3.923,6.968-9.932,10.605-12.989c1.79-1.527,2.448-2.851,3.864-4.491
			c1.449-1.583,3.669-3.551,8.788-5.702c1.288-0.519,2.466-0.954,3.552-1.299c1.111-0.31,2.117-0.548,3.026-0.728
			c1.803-0.388,3.278-0.434,4.398-0.405C269.19,325.586,270.086,326.032,270.086,326.032z"/>
		<path d="M327.82,341.198c-1.379-4.442-3.531-8.162-6.101-11.127c-0.654-0.712-1.293-1.543-1.922-1.958
			c-0.319-0.248-0.596-0.534-0.93-0.761l-1.074-0.596c-1.423-0.791-3.049-1.255-4.646-1.605c-6.555-1.201-12.627-0.324-17.388,0.425
			c-9.632,1.723-14.869,3.676-17.063,3.88c-2.197,0.292-1.397-1.19,2.192-3.462c3.583-2.194,9.976-4.992,18.57-6.145
			c4.291-0.543,8.681-0.76,13.132-0.136c2.224,0.288,4.455,0.917,6.629,1.813c1.051,0.557,2.139,1.081,3.112,1.809
			c0.934,0.779,1.975,1.564,2.625,2.402c3.022,3.233,5.354,7.078,6.919,11.108c1.577,4.034,2.447,8.219,2.893,12.316
			c0.846,8.22,0.221,16.1-0.429,23.47c-0.085,0.92-0.17,1.834-0.254,2.744c-0.119,0.958-0.202,1.949-0.381,2.9
			c-0.298,1.925-0.754,3.791-1.283,5.589c-1.058,3.604-2.473,6.893-3.834,9.948c-1.372,3.06-2.72,6.01-3.858,8.982
			c-1.09,2.888-1.91,5.921-2.52,9.04c-0.618,3.117-1.04,6.313-1.374,9.549l-0.445,4.889c-0.127,1.627-0.29,3.35-0.302,4.802
			c-0.338,6.045,1.378,11.988,5.605,15.355c4.213,3.458,10.609,3.929,16.625,2.816c3.055-0.587,6.384-1.62,9.964-3.125
			c3.576-1.454,7.387-3.215,11.455-4.499c2.017-0.643,4.156-1.139,6.202-1.428c1.985-0.315,3.938-0.625,5.83-0.925
			c3.873-0.55,7.575-0.603,10.719-0.29c6.312,0.643,10.415,2.297,11.04,2.733c0.31,0.249-0.258,0.289-1.894,0.069
			c-1.639-0.183-4.362-0.658-8.399-0.77c-4.041-0.137-7.729,0.373-11.175,1.144c-1.757,0.426-3.46,0.839-5.121,1.241
			c-1.694,0.39-3.121,0.762-4.611,1.325c-5.873,2.152-10.921,5.467-16.992,7.922c-3.054,1.242-6.328,2.125-9.887,2.655
			c-3.553,0.5-7.51,0.426-11.616-0.836c-4.089-1.242-8.224-4.2-10.844-8.524c-2.689-4.313-3.588-9.638-3.468-15.026
			c0.017-1.398,0.099-2.68,0.204-3.93c0.103-1.278,0.208-2.569,0.314-3.867c0.231-2.607,0.514-5.269,0.907-7.957
			c0.765-5.354,2.061-10.938,4.218-16.097c2.073-5.087,4.493-9.72,6.19-14.22c0.856-2.249,1.542-4.467,2.005-6.66
			c0.225-1.099,0.405-2.189,0.542-3.269c0.138-1.165,0.272-2.313,0.406-3.441c0.522-4.509,0.922-8.669,1.09-12.378
			c0.166-3.707,0.065-6.947-0.137-9.613c-0.248-2.656-0.609-4.731-0.914-6.134C328.004,341.953,327.82,341.198,327.82,341.198z"/>
		<path d="M386.374,427.66c-5.693,1.819-8.66,1.5-9.435,0.688c-0.781-0.815,0.466-2.06,2.899-2.411
			c4.895-0.715,9.553-2.783,13.585-3.482c3.998-0.703,8.194-1.219,12.362-0.45c2.088,0.277,5.085,1.491,6.676,2.618
			c1.603,1.157,2.007,1.847-0.295,1.171c-2.328-0.626-4.038-0.629-5.816-0.578c-1.781,0.038-3.658,0.202-6.499,0.394
			c-2.847,0.213-6.209,0.718-8.866,1.191C388.317,427.298,386.374,427.66,386.374,427.66z"/>
		<path d="M383.055,416.794c-8.03,2.583-11.707,3.549-12.97,3.026c-1.236-0.427,0.302-2.397,3.826-3.487
			c6.957-2.135,13.82-4.532,19.626-5.377c5.76-0.839,11.7-1.242,17.577-0.184c2.937,0.531,7.233,2.189,9.352,4.041
			c2.041,1.974,2.434,2.839-0.456,1.134c-1.544-0.707-2.906-1.21-4.255-1.403c-1.309-0.301-2.559-0.383-3.846-0.463
			c-2.567-0.155-5.315-0.16-9.469,0.011c-4.155,0.159-9.035,0.709-12.84,1.384C385.797,416.139,383.055,416.794,383.055,416.794z"/>
		<path d="M350.404,268.504c2.629,0.326,4.743,0.422,6.38,0.698c1.647,0.264,2.94,0.486,4.131,0.811
			c2.28,0.804,4.313,1.862,7.618,5.315c3.285,3.403,9.199,9.911,12.739,17.679c3.723,7.657,5.198,15.928,5.227,19.928
			c-0.001,1.006,0.174,2.587,0.095,4.6c-0.01,1.005-0.02,2.117-0.031,3.321c-0.09,1.195-0.186,2.48-0.288,3.836
			c-0.059,1.359-0.311,2.764-0.506,4.228c-0.187,1.459-0.422,2.975-0.758,4.537c-0.662,3.091-1.571,6.21-2.603,9.257
			c-4.121,12.195-10.248,23.24-11.996,26.313c-1.779,3.197-3.446,6.876-5.05,10.3c-1.63,3.417-3.186,6.48-5.288,8.355
			c-1.084,0.938-2.283,2.617-3.363,4.711c-1.012,2.084-1.815,4.641-1.752,6.98c0.019,2.108,1.118,4.808,2.174,6.388
			c1.113,1.68,2.201,1.854,2.76,1.743c0.567-0.103,1.254-0.137,2.383-0.289c1.098-0.143,2.49-0.39,3.939-0.715
			c2.925-0.691,6.012-1.551,8.008-2.591c3.978-2.139,8.328-4.068,10.978-4.65c1.311-0.332,3.913-0.345,6.532-0.475
			c2.641-0.073,5.303-0.27,7.014-1.202c1.707-0.992,4.727-0.746,7.17-0.051c1.232,0.296,2.313,0.768,3.093,1.091
			c0.766,0.348,1.252,0.569,1.252,0.569s-0.655,0.698-1.772,1.405c-1.117,0.682-2.676,1.438-4.599,1.591
			c-1.93,0.16-4.134,0.113-5.881,0.078c-1.743-0.014-3.026-0.079-3.026-0.079s-1.76-0.017-3.747,0.202
			c-1.988,0.194-4.185,0.661-5.038,1.195c-1.762,1.004-6.141,3.609-9.506,3.487c-3.435-0.234-12.02,5.525-15.682,5.082
			c-0.821,0-2.189-0.199-3.517-0.988c-1.342-0.773-2.435-2.156-3.162-3.587c-1.394-2.922-1.828-5.912-1.927-6.846
			c-0.065-0.231-0.103-0.669-0.145-1.276c-0.058-0.607-0.148-1.385-0.069-2.279c-0.006-1.813,0.463-4.061,1.096-6.372
			c1.366-4.595,3.708-9.243,5.086-11.376c1.326-2.157,4.332-6.929,6.704-11.324c2.279-4.451,4.069-8.987,4.605-10.068
			c0.532-1.109,3.705-6.62,6.424-12.793c2.801-6.141,4.848-12.977,5.068-15.755c0.404-2.751,0.654-9.141-0.281-15.265
			c-0.866-6.145-2.902-11.85-3.817-14.059c-0.356-1.151-1.028-2.254-1.72-3.361c-0.352-0.55-0.7-1.107-1.083-1.642l-1.258-1.533
			c-0.819-1.017-1.64-1.987-2.492-2.849c-0.839-0.866-1.477-1.779-2.149-2.537c-1.297-1.553-2.422-2.115-3.983-3.074
			c-1.52-1.018-3.186-2.606-6.269-6.113c-1.518-1.806-2.868-3.229-3.9-4.539c-1.006-1.353-1.862-2.329-2.424-3.233
			C350.641,269.519,350.404,268.504,350.404,268.504z"/>
		<path d="M286.613,7.286c-0.955-0.048-1.537,0.056-1.862,0.131c-0.314,0.094-0.622,0.101-0.966,0.338
			c-0.717,0.397-1.445,0.94-2.126,1.019c-0.681,0.104-1.283-0.156-1.57-0.85c-0.306-0.652-0.227-1.871,0.873-3.02
			c1.125-1.153,2.768-1.739,4.101-1.826c1.367-0.121,2.534,0.065,3.627,0.27c2.18,0.438,4.034,1.119,5.529,1.953
			c2.963,1.688,5.653,3.623,7.926,6.006c1.14,1.193,2.615,3.208,3.394,4.629c0.777,1.38,1.071,2.359-0.873,1.34
			c-3.556-2.029-5.39-2.235-9.203-4.9c-1.908-1.322-4.112-2.825-5.87-3.783C287.83,7.624,286.613,7.286,286.613,7.286z"/>
		<path d="M352.121,143.784c-0.653,11.902,0.912,17.31-0.518,19.197c-0.57,0.891-1.455,0.728-2.367-0.406
			c-0.455-0.565-0.915-1.369-1.335-2.381c-0.202-0.506-0.426-1.057-0.575-1.668c-0.113-0.62-0.205-1.286-0.269-1.991
			c-0.083-1.413-0.39-2.796-0.356-4.204c-0.034-1.403-0.067-2.8-0.101-4.189c0.179-2.758,0.242-5.514,0.732-8.129
			c0.777-5.268,2.205-10.132,3.986-14.136c3.514-8.072,7.911-15.432,12.447-22.531c2.329-3.511,5.836-8.794,8.059-12.145
			c2.225-3.356,3.625-4.632,1.947,0.505c-1.723,5.113-3.014,8.689-4.501,12.455c-1.506,3.752-3.308,7.659-6.331,13.204
			c-3.018,5.542-6.378,11.959-8.257,17.212c-0.872,2.633-1.661,4.912-1.962,6.573c-0.193,0.826-0.347,1.483-0.453,1.934
			C352.152,143.536,352.121,143.784,352.121,143.784z"/>
		<path d="M346.263,62.712c-3.398-2.113-5.498-4.588-6.274-6.69c-0.483-0.964-0.487-1.949-0.46-2.623
			c0.052-0.696,0.248-1.184,0.529-1.506c0.562-0.637,1.46-0.637,2.275-0.288c0.82,0.368,1.462,1.095,2.194,2.22
			c1.386,2.32,3.766,4.126,6.269,5.469c2.481,1.388,5.026,2.49,7.187,3.773c4.257,2.587,8.968,5.199,12.394,9.77
			c0.403,0.593,0.833,1.27,1.257,1.983c0.405,0.736,0.69,1.626,0.997,2.434c0.35,0.79,0.4,1.72,0.505,2.515
			c0.099,0.806,0.157,1.534-0.008,2.197c-0.452,2.608-1.19,3.248-1.936,0.539c-0.923-2.691-2.373-4.096-4.024-5.364
			c-1.573-1.322-3.514-2.484-6.386-4.5c-2.915-1.998-6.626-4.265-9.546-6.242C348.309,64.429,346.263,62.712,346.263,62.712z"/>
		<path d="M323.214,82.795c-3.095-2.71-3.12-5.206-2.283-6.064c0.854-0.911,2.344-0.744,2.971,0.574
			c1.34,2.754,4.365,4.294,6.143,6.211c1.787,1.899,3.669,4.019,4.686,6.732c0.551,1.324,0.829,3.547,0.549,4.909
			c-0.262,1.379-0.767,1.882-1.414,0.502c-0.66-1.386-1.469-2.163-2.255-2.968c-0.819-0.798-1.632-1.612-2.754-3.004
			c-1.198-1.436-2.596-3.113-3.698-4.435C324.016,83.875,323.214,82.795,323.214,82.795z"/>
		<path d="M321.798,104.956c-1.691,2.685-3.226,3.277-4.476,2.983c-1.203-0.283-1.833-1.715-0.742-2.832
			c2.117-2.144,3.466-4.887,5.168-6.494c1.688-1.59,3.392-3.064,5.353-4.184c1.961-1.042,6.489-2.928,4.897-0.556
			c-1.65,2.381-1.884,3.886-4.386,6.14c-1.253,1.119-2.748,2.316-3.884,3.273C322.612,104.251,321.798,104.956,321.798,104.956z"/>
		<path d="M268.08,1.329c1.733-1.384,3.457-1.445,4.483-1.245c1.06,0.309,1.589,0.918,1.764,1.535
			c0.306,1.268-0.477,2.572-1.572,2.464c-1.193-0.119-2.223,0.521-2.915,1.279c-0.719,0.757-1.116,1.67-1.573,2.436
			c-0.953,1.525-1.532,3.405-2.353,5.383c-0.442,0.978-1.194,2.549-1.849,3.616c-0.65,1.056-1.308,1.571-1.596,0.081
			c-0.477-2.96-1.489-4.376-0.43-8.187c0.589-1.889,1.84-4.022,3.267-5.391C266.744,1.932,268.08,1.329,268.08,1.329z"/>
		<path d="M251.508,9.463c0.837-2.464,2.71-4.005,4.211-4.221c1.46-0.287,2.323,0.356,2.594,0.872
			c0.297,0.571,0.171,1.264-0.037,1.797c-0.226,0.539-0.542,0.812-1.042,1.032c-1.102,0.369-1.856,1.693-2.108,3.044
			c-0.22,1.399-0.217,2.751-0.21,3.968c-0.057,2.428,0.344,4.879,0.938,7.164c0.286,1.16,0.843,2.832,1.673,3.975
			c0.821,1.024,1.52,1.994-0.597,1.476c-1.962-0.717-3.337-1.67-4.394-2.851c-1.137-1.18-2.018-2.693-2.545-5.094
			c-0.514-2.404-0.426-5.258,0.126-7.454c0.238-1.097,0.611-2.033,0.867-2.683C251.313,9.844,251.508,9.463,251.508,9.463z"/>
		<path d="M241.349,21.325c0.278-2.158,1.884-3.733,3.186-3.982c1.317-0.295,2.04,0.335,2.294,0.9
			c0.268,0.589,0.188,1.267,0.086,1.753c-0.127,0.498-0.201,0.793-0.504,0.854c-0.68,0.145-1.076,1.205-1.027,2.194
			c0.008,0.986,0.343,2.04,0.468,2.792c0.149,0.773,0.332,1.165,0.607,1.517c0.292,0.373,0.974,0.878,1.854,1.476
			c0.856,0.596,2.322,1.774,3.05,2.789c0.735,1.026,0.8,1.773-0.528,1.51c-1.345-0.248-2.362-0.146-3.492-0.194
			c-1.11-0.124-2.466-0.037-4.497-1.764c-0.99-0.902-1.692-2.291-1.94-3.475c-0.291-1.218-0.272-2.247-0.23-3.161
			C240.783,22.664,241.349,21.325,241.349,21.325z"/>
		<path d="M162.219,177.715c-2.292,0.95-5.26,6.348-3.472,9.381c1.566,2.656,7.943,1.006,10.734,3.118
			c3.034,2.297-0.067,7.333,5.801,8.107c4.052,0.534,6.092-3.068,7.518-6.259C190.487,174.857,171.143,172.359,162.219,177.715z"/>
		<path d="M326.688,100.843c4.478,2.146,5.991,11.236,0.135,11.706c0.204,2.745-0.455,5.765-0.27,8.519
			c-3.692,0.904-11.257-4.464-10.524-9.299C316.647,107.701,325.893,104.2,326.688,100.843z"/>
		<path d="M145.236,241.178c6.33,3.852,5.562,5.132,7.934,11.575c1.868,5.069,3.629,3.848,2.856,9.209
			c-0.422,2.923-4.87,6.662-5.562,10.413C136.618,276.217,144.423,249.119,145.236,241.178z"/>
		<path d="M167.582,280.508c5.306,2.204,2.389,16.478-3.162,15.984C159.965,296.097,151.66,278.06,167.582,280.508z"/>
		<path d="M142.554,305.536c10.944-0.006,23.476,4.507,18.812,19.132c-3.793,11.892-7.5,1.773-9.85-3.49
			c-2.25-5.041-7.248-11.1-7.933-16.381C144.609,304.566,145.215,304.15,142.554,305.536z"/>
		<path d="M165.794,352.91c8.216-2.246,47.877-4.753,37.407,10.571c-13.051,1.824-23.277,7.761-36.467,8.2
			C148.394,372.292,153.734,353.365,165.794,352.91z"/>
		<path d="M158.644,391.346c4.173-4.968,17.195-5.861,23.265-4.49c8.31,1.878,9.244,13.119-0.929,14.397
			c-3.29,0.413-6.742-2.721-10.718-2.273c-3.618,0.408-6.931,4.824-11.593,4.927C147.827,404.146,143.852,394.515,158.644,391.346z"
			/>
		<path d="M328.476,314.475c-0.115-5.202,5.315-11.337,10.591-11.756c-1.624-7.48,3.559-5.627,6.678-9.633
			c3.263-4.19,2.775-9.158,8.652-12.152c9.217-4.694,20.971,5.695,18.634,16.224c-16.98,0.148-26.279,30.383-43.523,18.061
			C329.078,313.649,329.643,313.066,328.476,314.475z"/>
		<path d="M348.14,335.927c2.421-7.444,5.41-10.733,12.564-13.426c5.292-1.993,12.917-6.079,18.586-6.146
			c0.373,8.396,0.892,17.367-7.015,21.399c-1.404,0.716-3.956-0.709-5.409-0.057c-2.026,0.907-3.519,2.853-5.516,3.809
			c-4.105,1.964-6.175,4.27-11.266,4.138C348.445,342.752,348.935,340.823,348.14,335.927z"/>
		<path d="M214.042,68.952c6.269,2.611,17.76,7.835,21.417,8.357c3.657,0.522-7.835,13.581-10.447,15.67
			c-2.612,2.09-5.746-1.566-2.089-3.133c3.657-1.567,7.313-8.358,7.313-8.358s-13.581-3.657-17.76-5.746
			C208.296,73.653,210.908,67.385,214.042,68.952z"/>
		<path d="M279.337,32.908l-3.569,13.614c-0.264,1.009,0.483,1.996,1.526,2.003c3.231,0.019,9.265,0.055,10.401,0.055
			c1.567,0,4.179-4.702-1.044-3.657c-5.224,1.044-7.056,0.52-7.056,0.52s3.582-8.441,3.837-12.535
			C283.599,30.25,278.815,30.297,279.337,32.908z"/>
		<path d="M274.479,76.652c-1.422-0.61-2.633-0.405-3.417,0.118c-1.104,0.735-1.361,2.097-0.164,2.695
			c0.984,0.493,2.677,0.215,3.773-0.375C275.854,78.452,276.339,77.448,274.479,76.652z"/>
		<path d="M289.061,72.303c-1.142,0-1.469-1.305-1.293-2.628c0.182-1.362,0.896-2.744,1.804-2.744c0.896,0,1.279,1.342,1.183,2.685
			C290.66,70.96,290.084,72.303,289.061,72.303z"/>
	</g>
</g>
</svg>
